<svg xmlns="http://www.w3.org/2000/svg" xmlns:xlink="http://www.w3.org/1999/xlink" width="200" zoomAndPan="magnify" viewBox="0 0 150 149.999998" height="200" preserveAspectRatio="xMidYMid meet" version="1.0"><defs><clipPath id="74e74128df"><path d="M 39 47 L 56 47 L 56 121.738281 L 39 121.738281 Z M 39 47 " clip-rule="nonzero"/></clipPath><clipPath id="35ce701d61"><path d="M 58 63 L 75 63 L 75 121.738281 L 58 121.738281 Z M 58 63 " clip-rule="nonzero"/></clipPath><clipPath id="2d586b8d30"><path d="M 20.484375 65 L 37 65 L 37 121.738281 L 20.484375 121.738281 Z M 20.484375 65 " clip-rule="nonzero"/></clipPath><clipPath id="8f72779257"><path d="M 77 83 L 94 83 L 94 121.738281 L 77 121.738281 Z M 77 83 " clip-rule="nonzero"/></clipPath><clipPath id="1015030595"><path d="M 96 73 L 113 73 L 113 121.738281 L 96 121.738281 Z M 96 73 " clip-rule="nonzero"/></clipPath><clipPath id="9f146054d7"><path d="M 26 27.988281 L 135 27.988281 L 135 113 L 26 113 Z M 26 27.988281 " clip-rule="nonzero"/></clipPath></defs><g clip-path="url(#74e74128df)"><path fill="#ef529c" d="M 41.875 50.144531 C 41.828125 50.144531 41.785156 50.1875 41.785156 50.230469 L 41.785156 119.761719 C 41.785156 119.804688 41.828125 119.847656 41.875 119.847656 L 53.230469 119.847656 C 53.277344 119.847656 53.320312 119.804688 53.320312 119.761719 L 53.320312 50.230469 C 53.320312 50.1875 53.277344 50.144531 53.230469 50.144531 Z M 53.230469 122.007812 L 41.875 122.007812 C 40.636719 122.007812 39.625 121 39.625 119.761719 L 39.625 50.230469 C 39.625 48.992188 40.636719 47.984375 41.875 47.984375 L 53.230469 47.984375 C 54.46875 47.984375 55.480469 48.992188 55.480469 50.230469 L 55.480469 119.761719 C 55.480469 121 54.46875 122.007812 53.230469 122.007812 " fill-opacity="1" fill-rule="nonzero"/></g><g clip-path="url(#35ce701d61)"><path fill="#ef529c" d="M 60.898438 119.847656 L 72.425781 119.847656 L 72.425781 65.953125 L 60.898438 65.953125 Z M 72.570312 122.007812 L 60.753906 122.007812 C 59.640625 122.007812 58.738281 121.105469 58.738281 119.992188 L 58.738281 65.808594 C 58.738281 64.699219 59.640625 63.792969 60.753906 63.792969 L 72.570312 63.792969 C 73.683594 63.792969 74.585938 64.699219 74.585938 65.808594 L 74.585938 119.992188 C 74.585938 121.105469 73.683594 122.007812 72.570312 122.007812 " fill-opacity="1" fill-rule="nonzero"/></g><g clip-path="url(#2d586b8d30)"><path fill="#ef529c" d="M 22.675781 119.847656 L 34.207031 119.847656 L 34.207031 68 L 22.675781 68 Z M 34.351562 122.007812 L 22.53125 122.007812 C 21.417969 122.007812 20.515625 121.105469 20.515625 119.992188 L 20.515625 67.855469 C 20.515625 66.742188 21.417969 65.839844 22.53125 65.839844 L 34.351562 65.839844 C 35.460938 65.839844 36.367188 66.742188 36.367188 67.855469 L 36.367188 119.992188 C 36.367188 121.105469 35.460938 122.007812 34.351562 122.007812 " fill-opacity="1" fill-rule="nonzero"/></g><g clip-path="url(#8f72779257)"><path fill="#ef529c" d="M 80 119.847656 L 91.53125 119.847656 L 91.53125 85.660156 L 80 85.660156 Z M 91.78125 122.007812 L 79.75 122.007812 C 78.695312 122.007812 77.839844 121.152344 77.839844 120.097656 L 77.839844 85.410156 C 77.839844 84.355469 78.695312 83.496094 79.75 83.496094 L 91.78125 83.496094 C 92.835938 83.496094 93.691406 84.355469 93.691406 85.410156 L 93.691406 120.097656 C 93.691406 121.152344 92.835938 122.007812 91.78125 122.007812 " fill-opacity="1" fill-rule="nonzero"/></g><g clip-path="url(#1015030595)"><path fill="#ef529c" d="M 110.792969 122.007812 L 98.976562 122.007812 C 97.863281 122.007812 96.960938 121.105469 96.960938 119.992188 L 96.960938 74.933594 C 96.960938 74.339844 97.445312 73.855469 98.039062 73.855469 C 98.636719 73.855469 99.121094 74.339844 99.121094 74.933594 L 99.121094 119.847656 L 110.648438 119.847656 L 110.648438 83.644531 C 110.648438 83.046875 111.132812 82.5625 111.730469 82.5625 C 112.328125 82.5625 112.808594 83.046875 112.808594 83.644531 L 112.808594 119.992188 C 112.808594 121.105469 111.90625 122.007812 110.792969 122.007812 " fill-opacity="1" fill-rule="nonzero"/></g><path fill="#ffbd59" d="M 104.785156 70.035156 C 100.460938 70.035156 96.570312 67.636719 94.636719 63.78125 C 91.828125 58.1875 94.09375 51.351562 99.683594 48.546875 C 101.28125 47.746094 102.992188 47.339844 104.765625 47.339844 C 109.089844 47.339844 112.980469 49.738281 114.914062 53.597656 C 117.722656 59.1875 115.457031 66.019531 109.867188 68.828125 C 108.265625 69.628906 106.558594 70.035156 104.785156 70.035156 Z M 116.847656 52.628906 C 114.539062 48.03125 109.910156 45.179688 104.765625 45.179688 C 102.652344 45.179688 100.617188 45.660156 98.714844 46.613281 C 92.058594 49.957031 89.363281 58.089844 92.703125 64.746094 C 95.007812 69.34375 99.640625 72.195312 104.785156 72.195312 C 106.898438 72.195312 108.933594 71.710938 110.835938 70.757812 C 117.488281 67.417969 120.1875 59.285156 116.847656 52.628906 " fill-opacity="1" fill-rule="nonzero"/><g clip-path="url(#9f146054d7)"><path fill="#ffbd59" d="M 131.421875 109.324219 L 129.308594 110.382812 C 129.117188 110.480469 128.914062 110.527344 128.703125 110.527344 C 128.183594 110.527344 127.699219 110.234375 127.472656 109.773438 L 115.292969 85.511719 C 114.953125 84.835938 115.226562 84.011719 115.902344 83.675781 L 118.015625 82.613281 C 118.203125 82.519531 118.410156 82.46875 118.621094 82.46875 C 119.140625 82.46875 119.625 82.765625 119.855469 83.222656 L 132.03125 107.484375 C 132.371094 108.160156 132.097656 108.984375 131.421875 109.324219 Z M 111.851562 81.59375 L 111.761719 81.421875 C 111.421875 80.746094 111.699219 79.917969 112.371094 79.582031 L 116.84375 77.335938 C 117.035156 77.242188 117.238281 77.195312 117.449219 77.195312 C 117.96875 77.195312 118.453125 77.488281 118.683594 77.945312 L 118.769531 78.121094 C 118.933594 78.445312 118.960938 78.816406 118.84375 79.164062 C 118.726562 79.515625 118.484375 79.792969 118.160156 79.957031 L 113.6875 82.203125 C 113.5 82.296875 113.292969 82.347656 113.082031 82.347656 C 112.566406 82.347656 112.078125 82.050781 111.851562 81.59375 Z M 113.078125 75.234375 C 113.109375 75.21875 113.144531 75.199219 113.171875 75.183594 L 113.917969 74.808594 L 114.480469 75.933594 L 112.660156 76.851562 L 112.09375 75.726562 L 113 75.273438 C 113.023438 75.257812 113.054688 75.246094 113.078125 75.234375 Z M 90.160156 66.023438 C 86.117188 57.964844 89.382812 48.113281 97.4375 44.070312 C 99.742188 42.917969 102.203125 42.328125 104.757812 42.328125 C 110.988281 42.328125 116.597656 45.785156 119.390625 51.351562 C 121.347656 55.253906 121.671875 59.6875 120.296875 63.835938 C 118.9375 67.941406 116.070312 71.273438 112.226562 73.242188 L 112.011719 73.347656 C 109.738281 74.472656 107.308594 75.042969 104.789062 75.042969 C 98.558594 75.042969 92.953125 71.585938 90.160156 66.023438 Z M 133.960938 106.515625 L 121.785156 82.253906 C 121.472656 81.628906 120.988281 81.132812 120.414062 80.792969 C 120.617188 80.507812 120.78125 80.1875 120.894531 79.84375 C 121.191406 78.949219 121.121094 77.992188 120.703125 77.152344 L 120.613281 76.976562 C 120.011719 75.777344 118.800781 75.035156 117.449219 75.035156 C 117.136719 75.035156 116.820312 75.082031 116.515625 75.167969 L 115.734375 73.609375 C 118.8125 71.355469 121.121094 68.214844 122.347656 64.515625 C 123.902344 59.820312 123.539062 54.800781 121.320312 50.382812 C 118.15625 44.082031 111.8125 40.167969 104.757812 40.167969 C 101.863281 40.167969 99.074219 40.832031 96.46875 42.140625 C 87.347656 46.71875 83.652344 57.867188 88.230469 66.992188 C 88.460938 67.449219 88.710938 67.890625 88.972656 68.324219 L 85.261719 74.914062 L 77.765625 56.621094 C 77.601562 56.214844 77.207031 55.953125 76.769531 55.953125 L 67.765625 55.953125 L 48.464844 28.449219 C 48.277344 28.183594 47.980469 28.011719 47.652344 27.992188 C 47.324219 27.972656 47.007812 28.097656 46.785156 28.339844 L 26.921875 49.921875 C 26.515625 50.363281 26.542969 51.046875 26.984375 51.449219 C 27.421875 51.851562 28.105469 51.824219 28.511719 51.382812 L 47.46875 30.789062 L 66.320312 57.652344 C 66.519531 57.941406 66.851562 58.113281 67.203125 58.113281 L 76.042969 58.113281 L 84.105469 77.796875 C 84.265625 78.179688 84.625 78.441406 85.039062 78.464844 C 85.0625 78.46875 85.082031 78.46875 85.109375 78.46875 C 85.492188 78.46875 85.855469 78.257812 86.046875 77.917969 L 90.34375 70.292969 C 93.8125 74.628906 99.070312 77.203125 104.789062 77.203125 C 106.585938 77.203125 108.339844 76.949219 110.035156 76.441406 L 110.824219 78.019531 C 109.519531 79.027344 109.0625 80.859375 109.832031 82.390625 L 109.917969 82.5625 C 110.511719 83.742188 111.691406 84.476562 113.011719 84.503906 C 112.9375 85.160156 113.042969 85.84375 113.359375 86.480469 L 125.539062 110.742188 C 126.144531 111.941406 127.351562 112.6875 128.703125 112.6875 C 129.246094 112.6875 129.792969 112.558594 130.277344 112.316406 L 132.390625 111.253906 C 134.128906 110.378906 134.835938 108.253906 133.960938 106.515625 " fill-opacity="1" fill-rule="nonzero"/></g></svg>