<svg xmlns="http://www.w3.org/2000/svg" xmlns:xlink="http://www.w3.org/1999/xlink" width="200" zoomAndPan="magnify" viewBox="0 0 150 149.999998" height="200" preserveAspectRatio="xMidYMid meet" version="1.0"><defs><clipPath id="242592a86b"><path d="M 75 0 C 33.578125 0 0 33.578125 0 75 C 0 116.421875 33.578125 150 75 150 C 116.421875 150 150 116.421875 150 75 C 150 33.578125 116.421875 0 75 0 Z M 75 0 " clip-rule="nonzero"/></clipPath><clipPath id="54b25ec788"><path d="M 108 96 L 128 96 L 128 121.953125 L 108 121.953125 Z M 108 96 " clip-rule="nonzero"/></clipPath><clipPath id="44cb0dba2a"><path d="M 51 28.203125 L 67 28.203125 L 67 43 L 51 43 Z M 51 28.203125 " clip-rule="nonzero"/></clipPath><clipPath id="71d2ac8df5"><path d="M 108.5625 96.316406 L 128.269531 96.316406 L 128.269531 121.375 L 108.5625 121.375 Z M 108.5625 96.316406 " clip-rule="nonzero"/></clipPath><clipPath id="64f4dcc55c"><path d="M 40 28.203125 L 68 28.203125 L 68 57 L 40 57 Z M 40 28.203125 " clip-rule="nonzero"/></clipPath><clipPath id="145ae56786"><path d="M 117 55 L 131.4375 55 L 131.4375 62 L 117 62 Z M 117 55 " clip-rule="nonzero"/></clipPath><clipPath id="3494540d19"><path d="M 117 54 L 131.4375 54 L 131.4375 62 L 117 62 Z M 117 54 " clip-rule="nonzero"/></clipPath><clipPath id="5078227545"><path d="M 18.1875 53 L 32 53 L 32 61 L 18.1875 61 Z M 18.1875 53 " clip-rule="nonzero"/></clipPath><clipPath id="9d8552a429"><path d="M 18.1875 62 L 43 62 L 43 72 L 18.1875 72 Z M 18.1875 62 " clip-rule="nonzero"/></clipPath></defs><g clip-path="url(#242592a86b)"><rect x="-15" width="180" fill="#241196" y="-15" height="179.999997" fill-opacity="1"/></g><path fill="#586580" d="M 35.058594 48.382812 C 35.367188 48.132812 35.90625 48.175781 35.90625 48.175781 L 107.410156 48.113281 C 107.410156 48.113281 107.886719 48.167969 108.195312 48.449219 C 108.5 48.730469 108.632812 49.246094 108.632812 49.246094 L 108.589844 95.25 C 108.589844 95.25 108.488281 95.847656 108.242188 96.179688 C 107.996094 96.515625 107.601562 96.585938 107.601562 96.585938 L 34.667969 96.585938 L 34.667969 49.160156 C 34.667969 49.160156 34.75 48.628906 35.058594 48.382812 " fill-opacity="1" fill-rule="evenodd"/><path fill="#efefef" d="M 37.957031 49.992188 C 38.210938 49.710938 38.714844 49.605469 38.714844 49.605469 L 105.773438 49.605469 C 105.773438 49.605469 106.167969 49.664062 106.402344 49.945312 C 106.640625 50.226562 106.722656 50.734375 106.722656 50.734375 L 106.722656 94.003906 C 106.722656 94.003906 106.582031 94.460938 106.28125 94.734375 C 105.984375 95.007812 105.53125 95.097656 105.53125 95.097656 L 37.699219 95.097656 L 37.699219 50.726562 C 37.699219 50.726562 37.707031 50.273438 37.957031 49.992188 " fill-opacity="1" fill-rule="evenodd"/><path fill="#ffd4af" d="M 33.503906 85.898438 C 33.503906 85.898438 34.21875 84.742188 34.914062 84.410156 C 35.78125 84 36.746094 84.421875 37.644531 84.613281 C 38.15625 84.71875 39.714844 82.886719 40.941406 82.984375 C 41.546875 83.03125 42.554688 84 43.226562 83.964844 C 44.246094 83.910156 45.597656 82.660156 47.03125 82.457031 C 48.644531 82.230469 49.1875 84.453125 50.121094 83.910156 C 51.015625 83.390625 52.789062 79.523438 54.328125 76.378906 C 55.613281 73.75 56.878906 70.527344 57.894531 68.996094 C 58.59375 67.941406 59.191406 68.066406 59.503906 68.226562 C 60.976562 68.976562 60.0625 72.046875 58.625 76.382812 C 57.398438 80.085938 55.734375 84.175781 54.503906 87.238281 C 53.550781 89.605469 52.859375 91.449219 52.859375 91.449219 C 52.859375 91.449219 53.617188 96.242188 52.6875 98.191406 C 51.828125 99.992188 50.425781 101.429688 49.054688 102.6875 C 47.195312 104.394531 45.265625 105.746094 43.617188 106.984375 C 41.644531 108.472656 40.285156 110.832031 40.285156 110.832031 C 40.285156 110.832031 38.703125 108.667969 34.859375 107.007812 C 31.714844 105.648438 27.820312 105.171875 27.820312 105.171875 C 27.820312 105.171875 28.527344 103.710938 28.90625 101.851562 C 29.328125 99.785156 29.453125 97.1875 30.199219 94.652344 C 31.621094 89.832031 33.503906 85.898438 33.503906 85.898438 " fill-opacity="1" fill-rule="evenodd"/><path fill="#ffd4af" d="M 105.0625 63.261719 C 105.449219 62.476562 106.328125 61.949219 107.050781 62.300781 C 107.640625 62.585938 108.546875 64.105469 108.546875 64.105469 L 108.628906 62.269531 C 108.628906 62.269531 112.28125 64.632812 115.304688 67.222656 C 117.667969 69.25 119.527344 71.425781 119.757812 72.679688 C 120.015625 74.0625 119.875 75.855469 119.832031 77.40625 C 119.722656 81.132812 119.210938 84.882812 119.101562 88.417969 C 118.964844 92.910156 120.082031 96.652344 120.082031 96.652344 C 120.082031 96.652344 117.097656 96.953125 114.589844 97.875 C 112.082031 98.796875 110.046875 100.335938 110.046875 100.335938 C 110.046875 100.335938 109.542969 97.003906 108.929688 95.03125 C 108.339844 93.121094 107.660156 92.625 106.761719 89.285156 C 106.558594 88.527344 106.40625 87.039062 106.394531 85.816406 C 106.375 82.640625 106.964844 79.238281 106.605469 76.234375 C 106.199219 72.804688 105.179688 70.589844 104.777344 68.4375 C 104.449219 66.683594 104.527344 64.347656 105.0625 63.261719 " fill-opacity="1" fill-rule="evenodd"/><path fill="#9aa6be" d="M 26.070312 105.820312 C 26.070312 105.820312 26.648438 105.148438 27.773438 105.15625 C 29.511719 105.171875 32.320312 105.976562 34.523438 106.914062 C 36.527344 107.761719 38.785156 109.101562 39.851562 110.238281 C 40.714844 111.15625 40.582031 111.984375 40.582031 111.984375 L 36.15625 120.347656 C 36.15625 120.347656 31.691406 120.730469 27.507812 119.828125 C 23.320312 118.925781 19.410156 116.742188 19.410156 116.742188 L 26.070312 105.820312 " fill-opacity="1" fill-rule="evenodd"/><g clip-path="url(#54b25ec788)"><path fill="#9aa6be" d="M 108.976562 102.058594 C 108.976562 102.058594 109.058594 101.441406 109.957031 100.648438 C 111.136719 99.605469 113.382812 98.269531 115.328125 97.648438 C 117.425781 96.980469 119.710938 96.597656 121.167969 96.828125 C 122.089844 96.976562 122.679688 97.703125 122.679688 97.703125 C 122.679688 97.703125 124.359375 103.5 125.640625 108.445312 C 126.925781 113.386719 127.820312 117.480469 127.820312 117.480469 C 127.820312 117.480469 124.464844 119.902344 120.21875 120.761719 C 114.488281 121.925781 111.074219 120.953125 111.074219 120.953125 C 111.074219 120.953125 110.464844 116.429688 109.941406 111.707031 C 109.417969 106.984375 108.976562 102.058594 108.976562 102.058594 " fill-opacity="1" fill-rule="evenodd"/></g><g clip-path="url(#44cb0dba2a)"><path fill="#80c254" d="M 51.378906 29.152344 C 51.378906 29.152344 56.128906 28.230469 60.410156 30.566406 C 65.058594 33.101562 66.785156 37.800781 66.785156 37.800781 L 53.941406 42.6875 L 51.378906 29.152344 " fill-opacity="1" fill-rule="evenodd"/></g><path fill="#febc42" d="M 40.695312 39.414062 C 41.414062 37.046875 43.019531 33.980469 45.019531 32.277344 C 47.945312 29.792969 51.378906 29.167969 51.378906 29.167969 L 53.9375 42.703125 L 44.328125 52.472656 C 44.328125 52.472656 42.378906 50.71875 41.199219 47.589844 C 40.320312 45.265625 39.945312 41.898438 40.695312 39.414062 " fill-opacity="1" fill-rule="evenodd"/><path fill="#e2453e" d="M 53.835938 42.785156 L 66.746094 37.785156 C 66.746094 37.785156 68.066406 41.378906 67.414062 45.121094 C 66.792969 48.667969 64.277344 52.320312 61.546875 54.09375 C 58.828125 55.859375 54.613281 56.921875 51.078125 56.09375 C 47.316406 55.210938 44.308594 52.375 44.308594 52.375 L 53.835938 42.785156 " fill-opacity="1" fill-rule="evenodd"/><path fill="#ff6464" d="M 44.902344 73.527344 L 46.925781 73.527344 L 46.925781 78.050781 L 44.902344 78.050781 L 44.902344 73.527344 " fill-opacity="1" fill-rule="evenodd"/><path fill="#64a058" d="M 54.390625 68.820312 L 56.441406 68.820312 L 56.488281 71.664062 L 55.664062 73.519531 L 54.441406 76.015625 L 54.390625 68.820312 " fill-opacity="1" fill-rule="evenodd"/><path fill="#ff7538" d="M 58.835938 64.734375 L 60.820312 64.734375 L 60.820312 78.078125 L 58.835938 78.078125 L 58.835938 75.582031 C 58.835938 75.582031 60.058594 71.9375 60.175781 70.074219 C 60.308594 67.867188 58.835938 68.109375 58.835938 68.109375 L 58.835938 64.734375 " fill-opacity="1" fill-rule="evenodd"/><path fill="#000000" d="M 110 100.601562 C 109.882812 100.601562 109.78125 100.507812 109.769531 100.390625 C 109.570312 98.261719 109.222656 96.46875 108.726562 95.066406 C 108.402344 94.152344 108.070312 93.375 107.75 92.628906 C 107.085938 91.074219 106.511719 89.734375 106.238281 87.703125 C 106.003906 85.929688 106.164062 83.730469 106.308594 81.792969 C 106.363281 81.015625 106.417969 80.28125 106.449219 79.597656 C 106.507812 78.167969 106.402344 76.640625 106.113281 74.796875 C 105.902344 73.433594 105.539062 72.203125 105.21875 71.113281 C 104.914062 70.085938 104.625 69.109375 104.503906 68.171875 C 104.222656 65.980469 104.347656 64.15625 104.84375 63.167969 C 105.253906 62.359375 105.863281 61.917969 106.511719 61.953125 C 107.191406 61.992188 108.207031 62.597656 109.175781 65.238281 C 109.933594 67.308594 110.492188 69.316406 110.980469 71.085938 C 111.808594 74.078125 112.527344 76.660156 113.882812 78.441406 C 113.960938 78.542969 113.941406 78.6875 113.839844 78.765625 C 113.738281 78.84375 113.59375 78.824219 113.515625 78.722656 C 112.101562 76.875 111.375 74.25 110.535156 71.210938 C 110.046875 69.449219 109.492188 67.453125 108.742188 65.398438 C 107.8125 62.867188 106.929688 62.445312 106.484375 62.417969 C 106.042969 62.394531 105.574219 62.753906 105.257812 63.378906 C 104.808594 64.273438 104.699219 66.042969 104.964844 68.113281 C 105.082031 69.015625 105.363281 69.96875 105.660156 70.980469 C 105.988281 72.082031 106.355469 73.332031 106.574219 74.726562 C 106.863281 76.601562 106.972656 78.15625 106.910156 79.617188 C 106.882812 80.304688 106.828125 81.046875 106.769531 81.828125 C 106.628906 83.746094 106.46875 85.914062 106.699219 87.640625 C 106.964844 89.605469 107.523438 90.921875 108.175781 92.441406 C 108.5 93.199219 108.835938 93.980469 109.164062 94.910156 C 109.671875 96.351562 110.03125 98.179688 110.230469 100.34375 C 110.242188 100.472656 110.148438 100.585938 110.019531 100.597656 C 110.015625 100.601562 110.007812 100.601562 110 100.601562 " fill-opacity="1" fill-rule="nonzero"/><path fill="#000000" d="M 112.425781 73.351562 C 112.324219 73.351562 112.230469 73.277344 112.203125 73.171875 C 111.910156 71.988281 111.035156 70.464844 110.125 69.550781 C 110.035156 69.460938 110.035156 69.3125 110.125 69.21875 C 110.214844 69.128906 110.363281 69.128906 110.453125 69.21875 C 111.414062 70.1875 112.339844 71.800781 112.652344 73.058594 C 112.683594 73.183594 112.609375 73.3125 112.484375 73.34375 C 112.464844 73.347656 112.445312 73.351562 112.425781 73.351562 " fill-opacity="1" fill-rule="nonzero"/><path fill="#000000" d="M 120.09375 96.890625 C 119.988281 96.890625 119.894531 96.820312 119.867188 96.710938 C 118.804688 92.167969 118.808594 90.769531 118.996094 86.136719 C 119.089844 83.921875 119.261719 81.871094 119.417969 80.0625 C 119.730469 76.386719 119.976562 73.480469 119.234375 72.109375 C 117.375 68.65625 110.117188 63.339844 108.546875 62.433594 C 108.433594 62.371094 108.394531 62.226562 108.460938 62.117188 C 108.523438 62.003906 108.664062 61.964844 108.777344 62.03125 C 110.371094 62.949219 117.738281 68.355469 119.644531 71.886719 C 120.449219 73.382812 120.210938 76.199219 119.878906 80.101562 C 119.726562 81.90625 119.550781 83.953125 119.460938 86.152344 C 119.273438 90.738281 119.269531 92.121094 120.320312 96.605469 C 120.351562 96.730469 120.273438 96.855469 120.148438 96.886719 C 120.128906 96.890625 120.113281 96.890625 120.09375 96.890625 " fill-opacity="1" fill-rule="nonzero"/><g clip-path="url(#71d2ac8df5)"><path fill="#000000" d="M 111 121.375 C 110.886719 121.375 110.789062 121.296875 110.769531 121.179688 C 110.4375 119.167969 108.992188 105.285156 108.75 102.207031 C 108.609375 100.457031 112.433594 98.382812 114.882812 97.488281 C 117.78125 96.425781 120.761719 96.179688 122.125 96.890625 C 122.5625 97.117188 122.835938 97.429688 122.945312 97.824219 C 123.171875 98.644531 123.425781 99.546875 123.714844 100.5625 C 124.746094 104.183594 126.160156 109.140625 128.136719 117.53125 C 128.167969 117.65625 128.089844 117.78125 127.964844 117.8125 C 127.839844 117.839844 127.714844 117.765625 127.6875 117.640625 C 125.710938 109.261719 124.296875 104.308594 123.269531 100.691406 C 122.976562 99.671875 122.722656 98.773438 122.496094 97.945312 C 122.425781 97.683594 122.230469 97.46875 121.914062 97.304688 C 120.671875 96.660156 117.78125 96.921875 115.039062 97.925781 C 112.527344 98.847656 109.105469 100.832031 109.210938 102.167969 C 109.449219 105.15625 110.910156 119.167969 111.230469 121.105469 C 111.25 121.230469 111.164062 121.351562 111.039062 121.371094 C 111.023438 121.375 111.011719 121.375 111 121.375 " fill-opacity="1" fill-rule="nonzero"/></g><path fill="#000000" d="M 27.761719 105.394531 C 27.71875 105.394531 27.675781 105.378906 27.636719 105.355469 C 27.527344 105.28125 27.5 105.136719 27.570312 105.027344 C 28.417969 103.757812 28.757812 101.542969 29.117188 99.203125 C 29.421875 97.210938 29.769531 94.949219 30.480469 92.921875 L 30.605469 92.558594 C 32.128906 88.21875 33.226562 85.082031 34.570312 84.328125 C 35.761719 83.664062 36.5625 83.972656 37.144531 84.199219 C 37.492188 84.335938 37.683594 84.402344 37.839844 84.304688 C 38.007812 84.203125 38.195312 84.054688 38.394531 83.898438 C 39.003906 83.414062 39.761719 82.816406 40.78125 82.816406 C 41.515625 82.816406 42.042969 83.144531 42.46875 83.410156 C 42.824219 83.632812 43.101562 83.808594 43.386719 83.75 C 43.652344 83.695312 44.019531 83.484375 44.449219 83.242188 C 45.191406 82.820312 46.113281 82.300781 47.085938 82.25 C 47.902344 82.210938 48.519531 82.757812 49.015625 83.199219 C 49.585938 83.703125 49.84375 83.886719 50.128906 83.65625 C 50.804688 83.105469 51.734375 81.160156 52.714844 79.097656 C 53.140625 78.203125 53.582031 77.277344 54.035156 76.394531 C 54.78125 74.9375 55.386719 73.5625 55.921875 72.347656 C 57.222656 69.394531 58.082031 67.441406 59.46875 67.988281 C 61.28125 68.707031 60.234375 72.257812 59.003906 75.828125 C 58.273438 77.957031 57.550781 79.847656 56.785156 81.847656 C 56.421875 82.792969 56.046875 83.777344 55.644531 84.851562 C 54.96875 86.660156 51.734375 94.835938 50.496094 97.617188 C 50.445312 97.738281 50.304688 97.789062 50.1875 97.738281 C 50.070312 97.683594 50.019531 97.546875 50.070312 97.429688 C 51.308594 94.652344 54.535156 86.492188 55.210938 84.6875 C 55.613281 83.613281 55.988281 82.625 56.351562 81.679688 C 57.117188 79.683594 57.835938 77.796875 58.566406 75.675781 C 59.421875 73.195312 60.851562 69.039062 59.300781 68.421875 C 58.328125 68.039062 57.539062 69.828125 56.347656 72.535156 C 55.808594 73.757812 55.199219 75.140625 54.445312 76.609375 C 53.996094 77.484375 53.558594 78.40625 53.132812 79.300781 C 52.085938 81.5 51.179688 83.402344 50.421875 84.019531 C 49.804688 84.519531 49.222656 84.003906 48.710938 83.550781 C 48.253906 83.144531 47.734375 82.6875 47.109375 82.71875 C 46.246094 82.761719 45.375 83.253906 44.679688 83.648438 C 44.214844 83.910156 43.816406 84.136719 43.480469 84.207031 C 43.015625 84.300781 42.632812 84.0625 42.226562 83.808594 C 41.808594 83.550781 41.382812 83.28125 40.78125 83.28125 C 39.921875 83.28125 39.261719 83.804688 38.679688 84.265625 C 38.472656 84.433594 38.269531 84.589844 38.082031 84.703125 C 37.71875 84.921875 37.359375 84.78125 36.980469 84.636719 C 36.425781 84.421875 35.796875 84.175781 34.796875 84.734375 C 33.605469 85.402344 32.476562 88.628906 31.046875 92.714844 L 30.917969 93.078125 C 30.222656 95.066406 29.894531 97.203125 29.574219 99.273438 C 29.191406 101.773438 28.863281 103.929688 27.957031 105.289062 C 27.910156 105.355469 27.839844 105.394531 27.761719 105.394531 " fill-opacity="1" fill-rule="nonzero"/><path fill="#000000" d="M 40.324219 111.070312 C 40.285156 111.070312 40.242188 111.058594 40.207031 111.035156 C 40.09375 110.972656 40.058594 110.828125 40.121094 110.71875 C 41.753906 107.902344 44.234375 106.105469 46.046875 104.792969 L 46.414062 104.527344 C 49.992188 101.917969 52.074219 99.308594 52.492188 97.984375 C 53 96.382812 53.039062 93.996094 52.601562 91.4375 C 52.582031 91.3125 52.667969 91.191406 52.792969 91.167969 C 52.921875 91.148438 53.039062 91.230469 53.0625 91.359375 C 53.507812 93.988281 53.460938 96.453125 52.933594 98.125 C 52.496094 99.519531 50.351562 102.234375 46.683594 104.90625 L 46.316406 105.171875 C 44.539062 106.460938 42.105469 108.222656 40.523438 110.953125 C 40.480469 111.027344 40.402344 111.070312 40.324219 111.070312 " fill-opacity="1" fill-rule="nonzero"/><path fill="#000000" d="M 36.0625 120.675781 C 36.027344 120.675781 35.988281 120.664062 35.949219 120.644531 C 35.839844 120.582031 35.800781 120.441406 35.863281 120.328125 C 37.058594 118.167969 38.097656 116.199219 38.933594 114.617188 C 39.460938 113.625 39.914062 112.769531 40.28125 112.097656 C 40.390625 111.894531 40.398438 111.664062 40.300781 111.386719 C 39.839844 110.085938 37.179688 108.195312 33.96875 106.890625 C 31.347656 105.824219 27.113281 104.792969 26.351562 105.960938 C 24.371094 109.007812 19.542969 116.933594 19.492188 117.015625 C 19.425781 117.125 19.28125 117.160156 19.175781 117.09375 C 19.066406 117.023438 19.03125 116.882812 19.097656 116.773438 C 19.144531 116.691406 23.976562 108.757812 25.964844 105.707031 C 27.050781 104.035156 32.234375 105.683594 34.140625 106.460938 C 36.902344 107.582031 40.144531 109.554688 40.738281 111.230469 C 40.878906 111.636719 40.863281 112.003906 40.6875 112.320312 C 40.320312 112.992188 39.867188 113.847656 39.347656 114.835938 C 38.507812 116.421875 37.464844 118.390625 36.265625 120.554688 C 36.222656 120.632812 36.144531 120.675781 36.0625 120.675781 " fill-opacity="1" fill-rule="nonzero"/><path fill="#000000" d="M 107.289062 96.78125 L 53.117188 96.78125 C 52.988281 96.78125 52.882812 96.675781 52.882812 96.546875 C 52.882812 96.417969 52.980469 96.316406 53.109375 96.316406 L 107.289062 96.316406 C 107.871094 96.316406 108.347656 95.839844 108.347656 95.253906 L 108.34375 94.070312 C 108.34375 93.941406 108.449219 93.835938 108.578125 93.835938 C 108.707031 93.835938 108.808594 93.941406 108.808594 94.070312 L 108.8125 95.253906 C 108.8125 96.09375 108.128906 96.78125 107.289062 96.78125 " fill-opacity="1" fill-rule="nonzero"/><path fill="#000000" d="M 34.660156 84.660156 C 34.53125 84.660156 34.425781 84.554688 34.425781 84.425781 L 34.433594 82.195312 L 34.433594 49.40625 C 34.433594 48.5625 35.113281 47.875 35.953125 47.875 L 41.28125 47.875 C 41.410156 47.875 41.511719 47.980469 41.511719 48.109375 C 41.511719 48.238281 41.410156 48.34375 41.28125 48.34375 L 35.953125 48.34375 C 35.371094 48.34375 34.894531 48.820312 34.894531 49.40625 L 34.894531 82.195312 L 34.890625 84.425781 C 34.890625 84.554688 34.789062 84.660156 34.660156 84.660156 " fill-opacity="1" fill-rule="nonzero"/><path fill="#000000" d="M 108.566406 64.570312 C 108.4375 64.570312 108.335938 64.464844 108.335938 64.335938 L 108.347656 49.40625 C 108.347656 48.820312 107.871094 48.34375 107.289062 48.34375 L 66.625 48.34375 C 66.5 48.34375 66.394531 48.238281 66.394531 48.109375 C 66.394531 47.980469 66.5 47.875 66.625 47.875 L 107.289062 47.875 C 108.128906 47.875 108.8125 48.5625 108.8125 49.40625 L 108.800781 64.335938 C 108.800781 64.464844 108.695312 64.570312 108.566406 64.570312 " fill-opacity="1" fill-rule="nonzero"/><path fill="#000000" d="M 105.507812 95.265625 L 53.246094 95.265625 C 53.117188 95.265625 53.011719 95.160156 53.011719 95.03125 C 53.011719 94.902344 53.109375 94.796875 53.238281 94.796875 L 105.507812 94.796875 C 106.042969 94.796875 106.480469 94.359375 106.480469 93.816406 L 106.4375 88.929688 C 106.4375 88.800781 106.542969 88.695312 106.671875 88.695312 C 106.800781 88.695312 106.902344 88.796875 106.902344 88.925781 L 106.945312 93.8125 C 106.945312 94.617188 106.300781 95.265625 105.507812 95.265625 " fill-opacity="1" fill-rule="nonzero"/><path fill="#000000" d="M 37.652344 84.539062 C 37.527344 84.539062 37.421875 84.433594 37.421875 84.304688 L 37.421875 50.839844 C 37.421875 50.042969 38.066406 49.390625 38.859375 49.390625 L 42.109375 49.390625 C 42.238281 49.390625 42.34375 49.496094 42.34375 49.625 C 42.34375 49.753906 42.242188 49.859375 42.113281 49.859375 L 38.859375 49.859375 C 38.324219 49.859375 37.886719 50.300781 37.886719 50.839844 L 37.886719 84.304688 C 37.886719 84.433594 37.78125 84.539062 37.652344 84.539062 " fill-opacity="1" fill-rule="nonzero"/><path fill="#000000" d="M 106.738281 62.355469 C 106.609375 62.355469 106.507812 62.25 106.507812 62.121094 L 106.480469 50.839844 C 106.480469 50.300781 106.042969 49.859375 105.507812 49.859375 L 65.835938 49.859375 C 65.707031 49.859375 65.605469 49.753906 65.605469 49.625 C 65.605469 49.496094 65.707031 49.390625 65.835938 49.390625 L 105.507812 49.390625 C 106.300781 49.390625 106.945312 50.042969 106.945312 50.839844 L 106.972656 62.121094 C 106.972656 62.25 106.867188 62.355469 106.738281 62.355469 " fill-opacity="1" fill-rule="nonzero"/><path fill="#000000" d="M 36.15625 71.9375 C 36.027344 71.9375 35.925781 72.054688 35.925781 72.195312 C 35.925781 72.339844 36.027344 72.457031 36.15625 72.457031 C 36.285156 72.457031 36.390625 72.339844 36.390625 72.195312 C 36.390625 72.054688 36.285156 71.9375 36.15625 71.9375 Z M 36.15625 72.921875 C 35.773438 72.921875 35.460938 72.597656 35.460938 72.195312 C 35.460938 71.796875 35.773438 71.46875 36.15625 71.46875 C 36.542969 71.46875 36.855469 71.796875 36.855469 72.195312 C 36.855469 72.597656 36.542969 72.921875 36.15625 72.921875 " fill-opacity="1" fill-rule="nonzero"/><g clip-path="url(#64f4dcc55c)"><path fill="#000000" d="M 53.960938 29.179688 C 46.535156 29.179688 40.492188 35.234375 40.492188 42.679688 C 40.492188 50.121094 46.535156 56.179688 53.960938 56.179688 C 61.390625 56.179688 67.433594 50.121094 67.433594 42.679688 C 67.433594 35.234375 61.390625 29.179688 53.960938 29.179688 Z M 53.960938 56.644531 C 46.28125 56.644531 40.027344 50.378906 40.027344 42.679688 C 40.027344 34.976562 46.28125 28.710938 53.960938 28.710938 C 61.644531 28.710938 67.894531 34.976562 67.894531 42.679688 C 67.894531 50.378906 61.644531 56.644531 53.960938 56.644531 " fill-opacity="1" fill-rule="nonzero"/></g><path fill="#000000" d="M 44.433594 52.578125 C 44.375 52.578125 44.316406 52.554688 44.269531 52.507812 C 44.179688 52.417969 44.179688 52.269531 44.269531 52.179688 L 53.675781 42.65625 L 51.175781 29.316406 C 51.152344 29.191406 51.234375 29.070312 51.359375 29.042969 C 51.484375 29.019531 51.605469 29.105469 51.628906 29.230469 L 54.15625 42.691406 C 54.167969 42.765625 54.144531 42.84375 54.089844 42.898438 L 44.597656 52.507812 C 44.554688 52.554688 44.496094 52.578125 44.433594 52.578125 " fill-opacity="1" fill-rule="nonzero"/><path fill="#000000" d="M 53.910156 43.03125 C 53.816406 43.03125 53.730469 42.976562 53.691406 42.882812 C 53.648438 42.761719 53.707031 42.628906 53.828125 42.582031 L 66.589844 37.632812 C 66.707031 37.585938 66.84375 37.644531 66.890625 37.765625 C 66.9375 37.886719 66.875 38.019531 66.757812 38.066406 L 53.992188 43.015625 C 53.964844 43.027344 53.9375 43.03125 53.910156 43.03125 " fill-opacity="1" fill-rule="nonzero"/><path fill="#000000" d="M 47.699219 43.265625 C 47.707031 43.402344 47.75 43.507812 47.832031 43.578125 C 47.910156 43.648438 47.996094 43.683594 48.09375 43.683594 C 48.183594 43.683594 48.265625 43.648438 48.347656 43.582031 C 48.425781 43.519531 48.464844 43.417969 48.464844 43.285156 C 48.464844 43.171875 48.425781 43.082031 48.347656 43.015625 C 48.265625 42.949219 48.175781 42.917969 48.074219 42.917969 C 48.003906 42.917969 47.945312 42.933594 47.898438 42.960938 C 47.847656 42.988281 47.808594 43.019531 47.785156 43.058594 C 47.753906 43.101562 47.734375 43.144531 47.722656 43.195312 C 47.707031 43.246094 47.695312 43.296875 47.691406 43.347656 Z M 47.183594 43.285156 C 47.191406 43.132812 47.222656 43.003906 47.277344 42.894531 C 47.332031 42.785156 47.402344 42.691406 47.484375 42.621094 C 47.570312 42.546875 47.660156 42.492188 47.765625 42.453125 C 47.867188 42.417969 47.972656 42.402344 48.082031 42.402344 C 48.191406 42.402344 48.300781 42.421875 48.40625 42.457031 C 48.515625 42.496094 48.613281 42.550781 48.695312 42.621094 C 48.78125 42.691406 48.847656 42.785156 48.902344 42.894531 C 48.953125 43.003906 48.980469 43.125 48.980469 43.265625 C 48.980469 43.410156 48.953125 43.539062 48.90625 43.652344 C 48.855469 43.769531 48.785156 43.867188 48.699219 43.945312 C 48.613281 44.027344 48.515625 44.089844 48.40625 44.128906 C 48.300781 44.171875 48.1875 44.191406 48.070312 44.191406 C 47.96875 44.191406 47.867188 44.175781 47.769531 44.140625 C 47.667969 44.105469 47.578125 44.050781 47.496094 43.976562 C 47.414062 43.902344 47.34375 43.808594 47.289062 43.691406 C 47.230469 43.574219 47.195312 43.441406 47.183594 43.285156 Z M 45.503906 40.664062 C 45.511719 40.8125 45.554688 40.921875 45.640625 40.992188 C 45.722656 41.058594 45.8125 41.09375 45.910156 41.09375 C 46.003906 41.09375 46.09375 41.058594 46.175781 40.992188 C 46.257812 40.921875 46.300781 40.820312 46.300781 40.683594 C 46.300781 40.574219 46.253906 40.480469 46.171875 40.402344 C 46.085938 40.324219 45.988281 40.285156 45.878906 40.285156 C 45.816406 40.285156 45.761719 40.300781 45.714844 40.332031 C 45.667969 40.359375 45.628906 40.398438 45.597656 40.441406 C 45.566406 40.484375 45.542969 40.535156 45.527344 40.589844 C 45.511719 40.644531 45.5 40.699219 45.496094 40.746094 Z M 44.988281 40.683594 C 44.996094 40.53125 45.027344 40.402344 45.082031 40.285156 C 45.140625 40.171875 45.210938 40.078125 45.292969 40.003906 C 45.378906 39.925781 45.472656 39.871094 45.578125 39.835938 C 45.6875 39.800781 45.792969 39.78125 45.902344 39.78125 C 46.015625 39.78125 46.128906 39.800781 46.234375 39.839844 C 46.34375 39.878906 46.441406 39.933594 46.527344 40.007812 C 46.613281 40.085938 46.683594 40.175781 46.734375 40.285156 C 46.789062 40.394531 46.8125 40.523438 46.8125 40.664062 C 46.8125 40.808594 46.785156 40.9375 46.730469 41.054688 C 46.679688 41.167969 46.605469 41.269531 46.519531 41.355469 C 46.429688 41.4375 46.332031 41.503906 46.21875 41.550781 C 46.105469 41.597656 45.988281 41.617188 45.867188 41.617188 C 45.761719 41.617188 45.65625 41.597656 45.558594 41.554688 C 45.457031 41.511719 45.367188 41.453125 45.285156 41.375 C 45.203125 41.296875 45.136719 41.199219 45.082031 41.085938 C 45.027344 40.96875 44.996094 40.835938 44.988281 40.683594 Z M 48.175781 39.761719 C 48.242188 39.707031 48.3125 39.679688 48.382812 39.679688 C 48.449219 39.679688 48.507812 39.703125 48.554688 39.75 C 48.597656 39.796875 48.621094 39.855469 48.621094 39.925781 C 48.621094 39.964844 48.609375 40.011719 48.589844 40.066406 C 48.339844 40.425781 48.097656 40.769531 47.867188 41.101562 C 47.636719 41.433594 47.410156 41.765625 47.179688 42.09375 C 46.953125 42.425781 46.722656 42.757812 46.492188 43.09375 C 46.257812 43.425781 46.015625 43.773438 45.765625 44.128906 C 45.730469 44.175781 45.691406 44.207031 45.648438 44.222656 C 45.605469 44.242188 45.566406 44.25 45.53125 44.25 C 45.46875 44.25 45.414062 44.226562 45.367188 44.183594 C 45.316406 44.140625 45.292969 44.082031 45.292969 44.011719 C 45.292969 43.949219 45.3125 43.890625 45.351562 43.828125 C 45.601562 43.46875 45.84375 43.125 46.074219 42.789062 C 46.304688 42.453125 46.53125 42.125 46.761719 41.796875 C 46.988281 41.46875 47.21875 41.136719 47.449219 40.800781 C 47.683594 40.464844 47.925781 40.121094 48.175781 39.761719 " fill-opacity="1" fill-rule="evenodd"/><path fill="#000000" d="M 58.324219 36.3125 C 58.332031 36.429688 58.367188 36.515625 58.433594 36.574219 C 58.5 36.632812 58.574219 36.660156 58.652344 36.660156 C 58.726562 36.660156 58.796875 36.632812 58.867188 36.578125 C 58.933594 36.523438 58.964844 36.441406 58.964844 36.328125 C 58.964844 36.230469 58.933594 36.15625 58.867188 36.101562 C 58.796875 36.046875 58.722656 36.019531 58.636719 36.019531 C 58.578125 36.019531 58.527344 36.03125 58.488281 36.054688 C 58.449219 36.078125 58.417969 36.105469 58.394531 36.140625 C 58.371094 36.171875 58.351562 36.210938 58.339844 36.253906 C 58.328125 36.296875 58.320312 36.339844 58.316406 36.378906 Z M 57.890625 36.328125 C 57.898438 36.199219 57.925781 36.089844 57.96875 36 C 58.015625 35.90625 58.074219 35.832031 58.144531 35.769531 C 58.214844 35.707031 58.292969 35.660156 58.378906 35.632812 C 58.464844 35.601562 58.550781 35.585938 58.644531 35.585938 C 58.734375 35.585938 58.828125 35.601562 58.917969 35.632812 C 59.007812 35.664062 59.089844 35.710938 59.160156 35.773438 C 59.230469 35.832031 59.289062 35.90625 59.332031 36 C 59.375 36.089844 59.398438 36.195312 59.398438 36.3125 C 59.398438 36.429688 59.375 36.539062 59.332031 36.636719 C 59.292969 36.734375 59.234375 36.816406 59.160156 36.882812 C 59.089844 36.949219 59.007812 37 58.917969 37.035156 C 58.828125 37.070312 58.730469 37.089844 58.632812 37.089844 C 58.546875 37.089844 58.464844 37.074219 58.378906 37.042969 C 58.296875 37.015625 58.21875 36.96875 58.152344 36.90625 C 58.082031 36.84375 58.023438 36.765625 57.976562 36.667969 C 57.929688 36.570312 57.902344 36.457031 57.890625 36.328125 Z M 56.476562 34.128906 C 56.484375 34.253906 56.523438 34.34375 56.59375 34.402344 C 56.664062 34.460938 56.742188 34.492188 56.820312 34.492188 C 56.902344 34.492188 56.976562 34.460938 57.046875 34.402344 C 57.113281 34.34375 57.148438 34.257812 57.148438 34.144531 C 57.148438 34.054688 57.113281 33.976562 57.039062 33.910156 C 56.96875 33.847656 56.886719 33.8125 56.796875 33.8125 C 56.742188 33.8125 56.695312 33.824219 56.65625 33.851562 C 56.621094 33.875 56.585938 33.90625 56.5625 33.941406 C 56.535156 33.980469 56.515625 34.019531 56.5 34.066406 C 56.484375 34.113281 56.476562 34.15625 56.472656 34.199219 Z M 56.046875 34.144531 C 56.054688 34.019531 56.082031 33.90625 56.128906 33.8125 C 56.175781 33.71875 56.234375 33.636719 56.304688 33.574219 C 56.375 33.511719 56.457031 33.464844 56.542969 33.433594 C 56.632812 33.402344 56.722656 33.390625 56.816406 33.390625 C 56.910156 33.390625 57.003906 33.40625 57.09375 33.4375 C 57.1875 33.46875 57.269531 33.515625 57.339844 33.578125 C 57.410156 33.644531 57.46875 33.722656 57.511719 33.8125 C 57.558594 33.90625 57.578125 34.011719 57.578125 34.128906 C 57.578125 34.25 57.558594 34.359375 57.511719 34.457031 C 57.464844 34.554688 57.40625 34.636719 57.332031 34.707031 C 57.257812 34.777344 57.175781 34.832031 57.078125 34.871094 C 56.984375 34.910156 56.886719 34.929688 56.785156 34.929688 C 56.695312 34.929688 56.609375 34.910156 56.527344 34.878906 C 56.441406 34.839844 56.367188 34.789062 56.296875 34.726562 C 56.230469 34.660156 56.171875 34.578125 56.125 34.484375 C 56.082031 34.386719 56.054688 34.273438 56.046875 34.144531 Z M 58.722656 33.375 C 58.777344 33.328125 58.835938 33.304688 58.898438 33.304688 C 58.953125 33.304688 59 33.324219 59.039062 33.363281 C 59.078125 33.402344 59.097656 33.449219 59.097656 33.511719 C 59.097656 33.542969 59.085938 33.582031 59.070312 33.628906 C 58.859375 33.925781 58.65625 34.21875 58.464844 34.496094 C 58.273438 34.773438 58.078125 35.050781 57.886719 35.328125 C 57.695312 35.605469 57.503906 35.882812 57.308594 36.164062 C 57.113281 36.445312 56.910156 36.738281 56.699219 37.035156 C 56.671875 37.074219 56.640625 37.101562 56.601562 37.117188 C 56.566406 37.128906 56.535156 37.136719 56.503906 37.136719 C 56.453125 37.136719 56.40625 37.117188 56.367188 37.082031 C 56.324219 37.042969 56.304688 36.996094 56.304688 36.9375 C 56.304688 36.886719 56.320312 36.835938 56.351562 36.78125 C 56.5625 36.480469 56.765625 36.191406 56.957031 35.910156 C 57.152344 35.632812 57.34375 35.355469 57.535156 35.078125 C 57.726562 34.804688 57.917969 34.523438 58.113281 34.246094 C 58.308594 33.964844 58.511719 33.675781 58.722656 33.375 " fill-opacity="1" fill-rule="evenodd"/><path fill="#000000" d="M 58.464844 50.671875 C 58.476562 50.84375 58.53125 50.972656 58.628906 51.058594 C 58.726562 51.144531 58.835938 51.1875 58.953125 51.1875 C 59.0625 51.1875 59.167969 51.144531 59.265625 51.0625 C 59.363281 50.984375 59.414062 50.859375 59.414062 50.695312 C 59.414062 50.554688 59.363281 50.441406 59.265625 50.359375 C 59.167969 50.28125 59.054688 50.238281 58.933594 50.238281 C 58.84375 50.238281 58.769531 50.257812 58.710938 50.289062 C 58.652344 50.324219 58.605469 50.367188 58.570312 50.417969 C 58.535156 50.464844 58.511719 50.519531 58.492188 50.585938 C 58.472656 50.648438 58.460938 50.707031 58.457031 50.773438 Z M 57.828125 50.695312 C 57.839844 50.507812 57.875 50.34375 57.945312 50.210938 C 58.011719 50.074219 58.097656 49.960938 58.199219 49.871094 C 58.304688 49.777344 58.417969 49.710938 58.546875 49.664062 C 58.671875 49.621094 58.804688 49.597656 58.9375 49.597656 C 59.074219 49.597656 59.207031 49.625 59.34375 49.667969 C 59.476562 49.71875 59.597656 49.785156 59.699219 49.871094 C 59.804688 49.960938 59.890625 50.074219 59.953125 50.210938 C 60.019531 50.34375 60.050781 50.496094 60.050781 50.671875 C 60.050781 50.847656 60.019531 51.007812 59.957031 51.152344 C 59.894531 51.292969 59.8125 51.414062 59.703125 51.511719 C 59.597656 51.613281 59.476562 51.6875 59.34375 51.738281 C 59.207031 51.792969 59.070312 51.820312 58.925781 51.820312 C 58.800781 51.820312 58.675781 51.796875 58.550781 51.75 C 58.425781 51.707031 58.3125 51.640625 58.210938 51.550781 C 58.113281 51.457031 58.027344 51.339844 57.957031 51.199219 C 57.886719 51.054688 57.84375 50.886719 57.828125 50.695312 Z M 55.742188 47.449219 C 55.753906 47.632812 55.8125 47.765625 55.914062 47.855469 C 56.019531 47.9375 56.128906 47.984375 56.25 47.984375 C 56.367188 47.984375 56.476562 47.9375 56.578125 47.855469 C 56.679688 47.765625 56.730469 47.640625 56.730469 47.476562 C 56.730469 47.339844 56.679688 47.222656 56.570312 47.128906 C 56.464844 47.03125 56.34375 46.980469 56.210938 46.980469 C 56.132812 46.980469 56.066406 47 56.007812 47.039062 C 55.949219 47.074219 55.902344 47.121094 55.863281 47.171875 C 55.824219 47.230469 55.796875 47.289062 55.773438 47.359375 C 55.753906 47.425781 55.742188 47.488281 55.734375 47.554688 Z M 55.105469 47.476562 C 55.117188 47.289062 55.15625 47.121094 55.226562 46.980469 C 55.296875 46.839844 55.382812 46.722656 55.488281 46.632812 C 55.589844 46.535156 55.707031 46.46875 55.839844 46.425781 C 55.972656 46.378906 56.105469 46.355469 56.242188 46.355469 C 56.382812 46.355469 56.519531 46.382812 56.652344 46.425781 C 56.789062 46.472656 56.910156 46.542969 57.015625 46.636719 C 57.121094 46.730469 57.207031 46.847656 57.273438 46.980469 C 57.335938 47.117188 57.367188 47.273438 57.367188 47.449219 C 57.367188 47.628906 57.335938 47.789062 57.269531 47.933594 C 57.199219 48.074219 57.113281 48.199219 57.003906 48.300781 C 56.894531 48.40625 56.769531 48.488281 56.628906 48.546875 C 56.488281 48.601562 56.34375 48.628906 56.195312 48.628906 C 56.066406 48.628906 55.9375 48.605469 55.8125 48.550781 C 55.691406 48.5 55.578125 48.425781 55.476562 48.332031 C 55.375 48.234375 55.292969 48.113281 55.222656 47.96875 C 55.15625 47.828125 55.117188 47.664062 55.105469 47.476562 Z M 59.054688 46.335938 C 59.136719 46.265625 59.222656 46.230469 59.3125 46.230469 C 59.394531 46.230469 59.464844 46.261719 59.523438 46.316406 C 59.578125 46.375 59.609375 46.449219 59.609375 46.535156 C 59.609375 46.582031 59.59375 46.640625 59.566406 46.710938 C 59.257812 47.152344 58.960938 47.578125 58.675781 47.992188 C 58.390625 48.402344 58.105469 48.8125 57.824219 49.21875 C 57.542969 49.628906 57.257812 50.039062 56.96875 50.457031 C 56.679688 50.871094 56.382812 51.296875 56.070312 51.738281 C 56.027344 51.796875 55.980469 51.835938 55.925781 51.859375 C 55.871094 51.878906 55.824219 51.886719 55.78125 51.886719 C 55.707031 51.886719 55.636719 51.863281 55.578125 51.808594 C 55.519531 51.75 55.488281 51.679688 55.488281 51.589844 C 55.488281 51.519531 55.511719 51.441406 55.558594 51.367188 C 55.867188 50.921875 56.167969 50.496094 56.453125 50.082031 C 56.738281 49.664062 57.019531 49.253906 57.300781 48.847656 C 57.585938 48.441406 57.871094 48.035156 58.15625 47.617188 C 58.445312 47.207031 58.746094 46.777344 59.054688 46.335938 " fill-opacity="1" fill-rule="evenodd"/><path fill="#efefef" d="M 79.859375 32.921875 L 99.996094 32.921875 C 100.425781 32.921875 100.769531 33.269531 100.769531 33.699219 L 100.769531 42.824219 C 100.769531 43.253906 100.425781 43.601562 99.996094 43.601562 L 79.859375 43.601562 C 79.433594 43.601562 79.085938 43.253906 79.085938 42.824219 L 79.085938 33.699219 C 79.085938 33.269531 79.433594 32.921875 79.859375 32.921875 " fill-opacity="1" fill-rule="evenodd"/><path fill="#000000" d="M 79.859375 33.152344 C 79.558594 33.152344 79.316406 33.398438 79.316406 33.699219 L 79.316406 42.824219 C 79.316406 43.125 79.558594 43.367188 79.859375 43.367188 L 99.996094 43.367188 C 100.292969 43.367188 100.539062 43.125 100.539062 42.824219 L 100.539062 33.699219 C 100.539062 33.398438 100.292969 33.152344 99.996094 33.152344 Z M 99.996094 43.832031 L 79.859375 43.832031 C 79.304688 43.832031 78.851562 43.378906 78.851562 42.824219 L 78.851562 33.699219 C 78.851562 33.140625 79.304688 32.6875 79.859375 32.6875 L 99.996094 32.6875 C 100.550781 32.6875 101.003906 33.140625 101.003906 33.699219 L 101.003906 42.824219 C 101.003906 43.378906 100.550781 43.832031 99.996094 43.832031 " fill-opacity="1" fill-rule="nonzero"/><path fill="#efefef" d="M 113.585938 40.074219 L 129.226562 40.074219 C 129.65625 40.074219 130.003906 40.421875 130.003906 40.851562 L 130.003906 48.484375 C 130.003906 48.914062 129.65625 49.261719 129.226562 49.261719 L 113.585938 49.261719 C 113.15625 49.261719 112.8125 48.914062 112.8125 48.484375 L 112.8125 40.851562 C 112.8125 40.421875 113.15625 40.074219 113.585938 40.074219 " fill-opacity="1" fill-rule="evenodd"/><path fill="#000000" d="M 113.585938 40.308594 C 113.285156 40.308594 113.042969 40.550781 113.042969 40.851562 L 113.042969 48.484375 C 113.042969 48.785156 113.285156 49.027344 113.585938 49.027344 L 129.226562 49.027344 C 129.527344 49.027344 129.769531 48.785156 129.769531 48.484375 L 129.769531 40.851562 C 129.769531 40.550781 129.527344 40.308594 129.226562 40.308594 Z M 129.226562 49.496094 L 113.585938 49.496094 C 113.027344 49.496094 112.578125 49.042969 112.578125 48.484375 L 112.578125 40.851562 C 112.578125 40.292969 113.027344 39.839844 113.585938 39.839844 L 129.226562 39.839844 C 129.78125 39.839844 130.234375 40.292969 130.234375 40.851562 L 130.234375 48.484375 C 130.234375 49.042969 129.78125 49.496094 129.226562 49.496094 " fill-opacity="1" fill-rule="nonzero"/><g clip-path="url(#145ae56786)"><path fill="#efefef" d="M 118.734375 55.222656 L 130.433594 55.222656 C 130.859375 55.222656 131.207031 55.570312 131.207031 56 L 131.207031 60.570312 C 131.207031 61 130.859375 61.347656 130.433594 61.347656 L 118.734375 61.347656 C 118.308594 61.347656 117.960938 61 117.960938 60.570312 L 117.960938 56 C 117.960938 55.570312 118.308594 55.222656 118.734375 55.222656 " fill-opacity="1" fill-rule="evenodd"/></g><g clip-path="url(#3494540d19)"><path fill="#000000" d="M 118.734375 55.457031 C 118.4375 55.457031 118.195312 55.699219 118.195312 56 L 118.195312 60.570312 C 118.195312 60.871094 118.4375 61.117188 118.734375 61.117188 L 130.433594 61.117188 C 130.730469 61.117188 130.976562 60.871094 130.976562 60.570312 L 130.976562 56 C 130.976562 55.699219 130.730469 55.457031 130.433594 55.457031 Z M 130.433594 61.582031 L 118.734375 61.582031 C 118.183594 61.582031 117.730469 61.128906 117.730469 60.570312 L 117.730469 56 C 117.730469 55.445312 118.183594 54.988281 118.734375 54.988281 L 130.433594 54.988281 C 130.988281 54.988281 131.4375 55.445312 131.4375 56 L 131.4375 60.570312 C 131.4375 61.128906 130.988281 61.582031 130.433594 61.582031 " fill-opacity="1" fill-rule="nonzero"/></g><g clip-path="url(#5078227545)"><path fill="#efefef" d="M 19.195312 53.984375 L 30.988281 53.984375 C 31.414062 53.984375 31.761719 54.332031 31.761719 54.765625 L 31.761719 59.980469 C 31.761719 60.410156 31.414062 60.757812 30.988281 60.757812 L 19.195312 60.757812 C 18.769531 60.757812 18.421875 60.410156 18.421875 59.980469 L 18.421875 54.765625 C 18.421875 54.332031 18.769531 53.984375 19.195312 53.984375 " fill-opacity="1" fill-rule="evenodd"/><path fill="#000000" d="M 19.195312 54.21875 C 18.898438 54.21875 18.652344 54.464844 18.652344 54.765625 L 18.652344 59.980469 C 18.652344 60.28125 18.898438 60.523438 19.195312 60.523438 L 30.988281 60.523438 C 31.285156 60.523438 31.527344 60.28125 31.527344 59.980469 L 31.527344 54.765625 C 31.527344 54.464844 31.285156 54.21875 30.988281 54.21875 Z M 30.988281 60.992188 L 19.195312 60.992188 C 18.640625 60.992188 18.1875 60.539062 18.1875 59.980469 L 18.1875 54.765625 C 18.1875 54.207031 18.640625 53.753906 19.195312 53.753906 L 30.988281 53.753906 C 31.542969 53.753906 31.992188 54.207031 31.992188 54.765625 L 31.992188 59.980469 C 31.992188 60.539062 31.542969 60.992188 30.988281 60.992188 " fill-opacity="1" fill-rule="nonzero"/></g><g clip-path="url(#9d8552a429)"><path fill="#000000" d="M 42.550781 71.894531 C 42.496094 71.894531 42.445312 71.878906 42.402344 71.839844 L 31.546875 62.585938 L 18.679688 62.585938 C 18.550781 62.585938 18.445312 62.480469 18.445312 62.351562 C 18.445312 62.222656 18.550781 62.121094 18.679688 62.121094 L 31.632812 62.121094 C 31.6875 62.121094 31.742188 62.136719 31.785156 62.175781 L 42.699219 71.484375 C 42.800781 71.570312 42.8125 71.714844 42.726562 71.8125 C 42.683594 71.867188 42.617188 71.894531 42.550781 71.894531 " fill-opacity="1" fill-rule="nonzero"/></g><path fill="#000000" d="M 72.929688 56.203125 C 72.890625 56.203125 72.847656 56.191406 72.8125 56.167969 C 72.707031 56.101562 72.667969 55.964844 72.734375 55.859375 L 79.542969 45.136719 C 79.585938 45.070312 79.660156 45.027344 79.738281 45.027344 L 100.195312 45.027344 C 100.320312 45.027344 100.425781 45.132812 100.425781 45.261719 C 100.425781 45.390625 100.320312 45.496094 100.195312 45.496094 L 79.867188 45.496094 L 73.140625 56.085938 C 73.09375 56.160156 73.011719 56.203125 72.929688 56.203125 " fill-opacity="1" fill-rule="nonzero"/><path fill="#000000" d="M 65.871094 67.339844 C 65.824219 67.339844 65.785156 67.328125 65.746094 67.300781 C 65.636719 67.234375 65.605469 67.089844 65.675781 66.980469 L 68.761719 62.113281 C 68.832031 62.007812 68.976562 61.972656 69.082031 62.042969 C 69.191406 62.109375 69.222656 62.25 69.15625 62.359375 L 69.117188 62.425781 L 66.066406 67.230469 C 66.019531 67.300781 65.945312 67.339844 65.871094 67.339844 " fill-opacity="1" fill-rule="nonzero"/><path fill="#000000" d="M 67.601562 56.261719 C 67.367188 56.261719 67.179688 56.503906 67.179688 56.804688 L 67.179688 61.375 C 67.179688 61.675781 67.367188 61.917969 67.601562 61.917969 L 77.5 61.917969 C 77.734375 61.917969 77.925781 61.675781 77.925781 61.375 L 77.925781 56.804688 C 77.925781 56.503906 77.734375 56.261719 77.5 56.261719 Z M 77.5 62.386719 L 67.601562 62.386719 C 67.113281 62.386719 66.714844 61.933594 66.714844 61.375 L 66.714844 56.804688 C 66.714844 56.246094 67.113281 55.792969 67.601562 55.792969 L 77.5 55.792969 C 77.992188 55.792969 78.390625 56.246094 78.390625 56.804688 L 78.390625 61.375 C 78.390625 61.933594 77.992188 62.386719 77.5 62.386719 " fill-opacity="1" fill-rule="nonzero"/><path fill="#000000" d="M 100.476562 58.003906 C 100.398438 58.003906 100.320312 57.960938 100.277344 57.886719 C 100.210938 57.777344 100.25 57.632812 100.359375 57.566406 L 112.875 50.140625 C 112.910156 50.121094 112.949219 50.109375 112.992188 50.109375 L 129.636719 50.109375 C 129.765625 50.109375 129.867188 50.214844 129.867188 50.34375 C 129.867188 50.472656 129.765625 50.578125 129.636719 50.578125 L 113.054688 50.578125 L 100.59375 57.96875 C 100.558594 57.992188 100.519531 58.003906 100.476562 58.003906 " fill-opacity="1" fill-rule="nonzero"/><path fill="#000000" d="M 124.28125 55.378906 C 124.152344 55.378906 124.050781 55.277344 124.050781 55.148438 L 124.050781 50.445312 C 124.050781 50.316406 124.152344 50.210938 124.28125 50.210938 C 124.410156 50.210938 124.515625 50.316406 124.515625 50.445312 L 124.515625 55.148438 C 124.515625 55.277344 124.410156 55.378906 124.28125 55.378906 " fill-opacity="1" fill-rule="nonzero"/><path fill="#000000" d="M 128.257812 43.90625 L 114.480469 43.90625 C 114.355469 43.90625 114.25 43.800781 114.25 43.671875 C 114.25 43.542969 114.355469 43.4375 114.480469 43.4375 L 128.257812 43.4375 C 128.386719 43.4375 128.492188 43.542969 128.492188 43.671875 C 128.492188 43.800781 128.386719 43.90625 128.257812 43.90625 " fill-opacity="1" fill-rule="nonzero"/><path fill="#000000" d="M 128.292969 42.304688 L 114.515625 42.304688 C 114.386719 42.304688 114.285156 42.203125 114.285156 42.074219 C 114.285156 41.945312 114.386719 41.839844 114.515625 41.839844 L 128.292969 41.839844 C 128.421875 41.839844 128.527344 41.945312 128.527344 42.074219 C 128.527344 42.203125 128.421875 42.304688 128.292969 42.304688 " fill-opacity="1" fill-rule="nonzero"/><path fill="#000000" d="M 128.257812 47.191406 L 114.480469 47.191406 C 114.355469 47.191406 114.25 47.085938 114.25 46.957031 C 114.25 46.828125 114.355469 46.726562 114.480469 46.726562 L 128.257812 46.726562 C 128.386719 46.726562 128.492188 46.828125 128.492188 46.957031 C 128.492188 47.085938 128.386719 47.191406 128.257812 47.191406 " fill-opacity="1" fill-rule="nonzero"/><path fill="#000000" d="M 128.277344 45.539062 L 114.5 45.539062 C 114.371094 45.539062 114.265625 45.433594 114.265625 45.304688 C 114.265625 45.175781 114.371094 45.074219 114.5 45.074219 L 128.277344 45.074219 C 128.40625 45.074219 128.507812 45.175781 128.507812 45.304688 C 128.507812 45.433594 128.40625 45.539062 128.277344 45.539062 " fill-opacity="1" fill-rule="nonzero"/><path fill="#000000" d="M 130.003906 58.464844 L 119.199219 58.464844 C 119.070312 58.464844 118.96875 58.363281 118.96875 58.234375 C 118.96875 58.105469 119.070312 58 119.199219 58 L 130.003906 58 C 130.132812 58 130.234375 58.105469 130.234375 58.234375 C 130.234375 58.363281 130.132812 58.464844 130.003906 58.464844 " fill-opacity="1" fill-rule="nonzero"/><path fill="#000000" d="M 129.984375 57.082031 L 119.179688 57.082031 C 119.050781 57.082031 118.945312 56.976562 118.945312 56.847656 C 118.945312 56.722656 119.050781 56.617188 119.179688 56.617188 L 129.984375 56.617188 C 130.113281 56.617188 130.214844 56.722656 130.214844 56.847656 C 130.214844 56.976562 130.113281 57.082031 129.984375 57.082031 " fill-opacity="1" fill-rule="nonzero"/><path fill="#000000" d="M 129.960938 59.828125 L 119.15625 59.828125 C 119.03125 59.828125 118.925781 59.726562 118.925781 59.597656 C 118.925781 59.46875 119.03125 59.363281 119.15625 59.363281 L 129.960938 59.363281 C 130.089844 59.363281 130.195312 59.46875 130.195312 59.597656 C 130.195312 59.726562 130.089844 59.828125 129.960938 59.828125 " fill-opacity="1" fill-rule="nonzero"/><path fill="#000000" d="M 98.605469 36.839844 L 81.152344 36.839844 C 81.023438 36.839844 80.921875 36.734375 80.921875 36.605469 C 80.921875 36.476562 81.023438 36.371094 81.152344 36.371094 L 98.605469 36.371094 C 98.734375 36.371094 98.835938 36.476562 98.835938 36.605469 C 98.835938 36.734375 98.734375 36.839844 98.605469 36.839844 " fill-opacity="1" fill-rule="nonzero"/><path fill="#000000" d="M 98.648438 35.242188 L 81.195312 35.242188 C 81.066406 35.242188 80.964844 35.136719 80.964844 35.007812 C 80.964844 34.878906 81.066406 34.773438 81.195312 34.773438 L 98.648438 34.773438 C 98.777344 34.773438 98.882812 34.878906 98.882812 35.007812 C 98.882812 35.136719 98.777344 35.242188 98.648438 35.242188 " fill-opacity="1" fill-rule="nonzero"/><path fill="#000000" d="M 98.605469 40.125 L 81.152344 40.125 C 81.023438 40.125 80.921875 40.019531 80.921875 39.890625 C 80.921875 39.761719 81.023438 39.660156 81.152344 39.660156 L 98.605469 39.660156 C 98.734375 39.660156 98.835938 39.761719 98.835938 39.890625 C 98.835938 40.019531 98.734375 40.125 98.605469 40.125 " fill-opacity="1" fill-rule="nonzero"/><path fill="#000000" d="M 98.625 38.472656 L 81.175781 38.472656 C 81.046875 38.472656 80.941406 38.367188 80.941406 38.238281 C 80.941406 38.113281 81.046875 38.007812 81.175781 38.007812 L 98.625 38.007812 C 98.753906 38.007812 98.859375 38.113281 98.859375 38.238281 C 98.859375 38.367188 98.753906 38.472656 98.625 38.472656 " fill-opacity="1" fill-rule="nonzero"/><path fill="#000000" d="M 98.574219 41.742188 L 81.121094 41.742188 C 80.992188 41.742188 80.890625 41.636719 80.890625 41.507812 C 80.890625 41.378906 80.992188 41.277344 81.121094 41.277344 L 98.574219 41.277344 C 98.703125 41.277344 98.804688 41.378906 98.804688 41.507812 C 98.804688 41.636719 98.703125 41.742188 98.574219 41.742188 " fill-opacity="1" fill-rule="nonzero"/><path fill="#000000" d="M 30.40625 56.980469 L 19.882812 56.980469 C 19.75 56.980469 19.648438 56.875 19.648438 56.746094 C 19.648438 56.617188 19.75 56.511719 19.882812 56.511719 L 30.40625 56.511719 C 30.535156 56.511719 30.636719 56.617188 30.636719 56.746094 C 30.636719 56.875 30.535156 56.980469 30.40625 56.980469 " fill-opacity="1" fill-rule="nonzero"/><path fill="#000000" d="M 30.386719 55.59375 L 19.863281 55.59375 C 19.730469 55.59375 19.628906 55.492188 19.628906 55.363281 C 19.628906 55.234375 19.730469 55.128906 19.863281 55.128906 L 30.386719 55.128906 C 30.515625 55.128906 30.617188 55.234375 30.617188 55.363281 C 30.617188 55.492188 30.515625 55.59375 30.386719 55.59375 " fill-opacity="1" fill-rule="nonzero"/><path fill="#000000" d="M 30.367188 58.34375 L 19.839844 58.34375 C 19.714844 58.34375 19.609375 58.238281 19.609375 58.109375 C 19.609375 57.980469 19.714844 57.875 19.839844 57.875 L 30.367188 57.875 C 30.492188 57.875 30.597656 57.980469 30.597656 58.109375 C 30.597656 58.238281 30.492188 58.34375 30.367188 58.34375 " fill-opacity="1" fill-rule="nonzero"/><path fill="#000000" d="M 30.351562 59.6875 L 19.828125 59.6875 C 19.699219 59.6875 19.59375 59.582031 19.59375 59.453125 C 19.59375 59.324219 19.699219 59.21875 19.828125 59.21875 L 30.351562 59.21875 C 30.480469 59.21875 30.582031 59.324219 30.582031 59.453125 C 30.582031 59.582031 30.480469 59.6875 30.351562 59.6875 " fill-opacity="1" fill-rule="nonzero"/><path fill="#000000" d="M 58.820312 78.335938 C 58.757812 78.335938 58.699219 78.3125 58.65625 78.269531 C 58.613281 78.226562 58.585938 78.164062 58.585938 78.101562 L 58.589844 75.683594 C 58.589844 75.554688 58.691406 75.449219 58.820312 75.449219 C 58.949219 75.449219 59.054688 75.554688 59.054688 75.683594 L 59.050781 77.871094 L 60.632812 77.867188 L 60.625 64.964844 L 59.046875 64.964844 L 59.046875 68.121094 C 59.046875 68.25 58.941406 68.355469 58.8125 68.355469 C 58.6875 68.355469 58.582031 68.25 58.582031 68.121094 L 58.582031 64.734375 C 58.582031 64.671875 58.605469 64.613281 58.648438 64.566406 C 58.691406 64.523438 58.75 64.5 58.8125 64.5 L 60.859375 64.5 C 60.988281 64.5 61.089844 64.601562 61.089844 64.730469 L 61.097656 78.101562 C 61.097656 78.164062 61.074219 78.222656 61.03125 78.265625 C 60.988281 78.3125 60.925781 78.335938 60.863281 78.335938 L 58.820312 78.335938 " fill-opacity="1" fill-rule="nonzero"/><path fill="#000000" d="M 54.398438 76.328125 C 54.269531 76.328125 54.164062 76.222656 54.164062 76.09375 L 54.160156 68.808594 C 54.160156 68.679688 54.265625 68.574219 54.394531 68.574219 L 56.4375 68.574219 C 56.566406 68.574219 56.671875 68.679688 56.671875 68.804688 L 56.675781 71.6875 C 56.675781 71.816406 56.570312 71.921875 56.445312 71.921875 C 56.445312 71.921875 56.441406 71.921875 56.441406 71.921875 C 56.316406 71.921875 56.210938 71.816406 56.210938 71.6875 L 56.207031 69.039062 L 54.625 69.039062 L 54.628906 76.09375 C 54.628906 76.222656 54.523438 76.328125 54.398438 76.328125 " fill-opacity="1" fill-rule="nonzero"/><path fill="#ffc662" d="M 51.675781 71.957031 L 49.628906 71.960938 L 49.632812 78.113281 L 51.679688 78.113281 L 51.675781 71.957031 " fill-opacity="1" fill-rule="evenodd"/><path fill="#000000" d="M 49.863281 72.195312 L 49.863281 77.878906 L 51.445312 77.878906 L 51.441406 72.191406 Z M 49.632812 78.347656 C 49.503906 78.347656 49.398438 78.242188 49.398438 78.113281 L 49.398438 71.960938 C 49.398438 71.832031 49.5 71.726562 49.628906 71.726562 L 51.675781 71.726562 C 51.738281 71.726562 51.796875 71.75 51.839844 71.792969 C 51.882812 71.835938 51.90625 71.898438 51.90625 71.957031 L 51.910156 78.113281 C 51.910156 78.175781 51.886719 78.234375 51.84375 78.277344 C 51.800781 78.320312 51.742188 78.34375 51.679688 78.34375 L 49.632812 78.347656 " fill-opacity="1" fill-rule="nonzero"/><path fill="#000000" d="M 45.140625 73.75 L 45.140625 77.871094 L 46.722656 77.871094 L 46.722656 73.75 Z M 44.910156 78.339844 C 44.847656 78.339844 44.789062 78.316406 44.746094 78.269531 C 44.703125 78.226562 44.679688 78.167969 44.679688 78.105469 L 44.675781 73.519531 C 44.675781 73.457031 44.699219 73.398438 44.742188 73.355469 C 44.789062 73.308594 44.84375 73.285156 44.90625 73.285156 L 46.953125 73.285156 C 47.082031 73.285156 47.1875 73.386719 47.1875 73.515625 L 47.1875 78.105469 C 47.1875 78.234375 47.085938 78.335938 46.957031 78.335938 L 44.910156 78.339844 " fill-opacity="1" fill-rule="nonzero"/><path fill="#000000" d="M 63.726562 78.34375 L 57.980469 78.34375 C 57.851562 78.34375 57.746094 78.238281 57.746094 78.113281 C 57.746094 77.984375 57.851562 77.878906 57.980469 77.878906 L 63.492188 77.878906 L 63.492188 62.921875 L 42.871094 62.921875 L 42.871094 77.878906 L 53.429688 77.878906 C 53.554688 77.878906 53.671875 77.984375 53.671875 78.113281 C 53.671875 78.238281 53.578125 78.34375 53.449219 78.34375 L 42.640625 78.34375 C 42.511719 78.34375 42.410156 78.238281 42.410156 78.113281 L 42.410156 62.6875 C 42.410156 62.558594 42.511719 62.453125 42.640625 62.453125 L 63.726562 62.453125 C 63.851562 62.453125 63.957031 62.558594 63.957031 62.6875 L 63.957031 78.113281 C 63.957031 78.238281 63.851562 78.34375 63.726562 78.34375 " fill-opacity="1" fill-rule="nonzero"/><path fill="#000000" d="M 76.800781 59.300781 L 68.261719 59.300781 C 68.136719 59.300781 68.03125 59.195312 68.03125 59.066406 C 68.03125 58.9375 68.136719 58.832031 68.261719 58.832031 L 76.800781 58.832031 C 76.929688 58.832031 77.035156 58.9375 77.035156 59.066406 C 77.035156 59.195312 76.929688 59.300781 76.800781 59.300781 " fill-opacity="1" fill-rule="nonzero"/><path fill="#000000" d="M 76.785156 57.917969 L 68.246094 57.917969 C 68.117188 57.917969 68.015625 57.8125 68.015625 57.683594 C 68.015625 57.554688 68.117188 57.449219 68.246094 57.449219 L 76.785156 57.449219 C 76.914062 57.449219 77.019531 57.554688 77.019531 57.683594 C 77.019531 57.8125 76.914062 57.917969 76.785156 57.917969 " fill-opacity="1" fill-rule="nonzero"/><path fill="#000000" d="M 76.769531 60.664062 L 68.230469 60.664062 C 68.101562 60.664062 68 60.558594 68 60.429688 C 68 60.300781 68.101562 60.195312 68.230469 60.195312 L 76.769531 60.195312 C 76.898438 60.195312 77.003906 60.300781 77.003906 60.429688 C 77.003906 60.558594 76.898438 60.664062 76.769531 60.664062 " fill-opacity="1" fill-rule="nonzero"/><path fill="#000000" d="M 71.609375 68.195312 C 71.492188 68.195312 71.355469 68.402344 71.355469 68.671875 L 71.355469 72.855469 C 71.355469 73.121094 71.492188 73.332031 71.609375 73.332031 L 78.9375 73.332031 C 79.054688 73.332031 79.191406 73.121094 79.191406 72.855469 L 79.191406 68.671875 C 79.191406 68.402344 79.054688 68.195312 78.9375 68.195312 Z M 78.9375 73.796875 L 71.609375 73.796875 C 71.207031 73.796875 70.890625 73.382812 70.890625 72.855469 L 70.890625 68.671875 C 70.890625 68.144531 71.207031 67.726562 71.609375 67.726562 L 78.9375 67.726562 C 79.339844 67.726562 79.65625 68.144531 79.65625 68.671875 L 79.65625 72.855469 C 79.65625 73.382812 79.339844 73.796875 78.9375 73.796875 " fill-opacity="1" fill-rule="nonzero"/><path fill="#000000" d="M 78.246094 70.96875 L 72.277344 70.96875 C 72.148438 70.96875 72.046875 70.863281 72.046875 70.734375 C 72.046875 70.605469 72.148438 70.5 72.277344 70.5 L 78.246094 70.5 C 78.375 70.5 78.480469 70.605469 78.480469 70.734375 C 78.480469 70.863281 78.375 70.96875 78.246094 70.96875 " fill-opacity="1" fill-rule="nonzero"/><path fill="#000000" d="M 78.238281 69.582031 L 72.265625 69.582031 C 72.136719 69.582031 72.035156 69.480469 72.035156 69.351562 C 72.035156 69.222656 72.136719 69.117188 72.265625 69.117188 L 78.238281 69.117188 C 78.363281 69.117188 78.46875 69.222656 78.46875 69.351562 C 78.46875 69.480469 78.363281 69.582031 78.238281 69.582031 " fill-opacity="1" fill-rule="nonzero"/><path fill="#000000" d="M 78.222656 72.332031 L 72.253906 72.332031 C 72.125 72.332031 72.023438 72.226562 72.023438 72.097656 C 72.023438 71.96875 72.125 71.863281 72.253906 71.863281 L 78.222656 71.863281 C 78.351562 71.863281 78.457031 71.96875 78.457031 72.097656 C 78.457031 72.226562 78.351562 72.332031 78.222656 72.332031 " fill-opacity="1" fill-rule="nonzero"/><path fill="#76ceff" d="M 83.703125 57.570312 L 86.683594 57.570312 L 86.683594 71.441406 L 83.703125 71.441406 L 83.703125 57.570312 " fill-opacity="1" fill-rule="evenodd"/><path fill="#000000" d="M 83.933594 71.207031 L 86.449219 71.207031 L 86.449219 57.804688 L 83.933594 57.804688 Z M 86.683594 71.675781 L 83.703125 71.675781 C 83.574219 71.675781 83.46875 71.570312 83.46875 71.441406 L 83.46875 57.570312 C 83.46875 57.441406 83.574219 57.335938 83.703125 57.335938 L 86.683594 57.335938 C 86.8125 57.335938 86.914062 57.441406 86.914062 57.570312 L 86.914062 71.441406 C 86.914062 71.570312 86.8125 71.675781 86.683594 71.675781 " fill-opacity="1" fill-rule="nonzero"/><path fill="#ff7439" d="M 88.328125 54.109375 L 91.335938 54.109375 L 91.335938 71.441406 L 88.328125 71.441406 L 88.328125 54.109375 " fill-opacity="1" fill-rule="evenodd"/><path fill="#000000" d="M 88.5625 71.207031 L 91.105469 71.207031 L 91.105469 54.34375 L 88.5625 54.34375 Z M 91.335938 71.675781 L 88.328125 71.675781 C 88.199219 71.675781 88.097656 71.570312 88.097656 71.441406 L 88.097656 54.109375 C 88.097656 53.980469 88.199219 53.875 88.328125 53.875 L 91.335938 53.875 C 91.464844 53.875 91.570312 53.980469 91.570312 54.109375 L 91.570312 71.441406 C 91.570312 71.570312 91.464844 71.675781 91.335938 71.675781 " fill-opacity="1" fill-rule="nonzero"/><path fill="#bab6ff" d="M 96.082031 59.820312 L 92.921875 59.820312 L 92.921875 71.441406 L 96.082031 71.441406 L 96.082031 59.820312 " fill-opacity="1" fill-rule="evenodd"/><path fill="#000000" d="M 93.15625 71.207031 L 95.851562 71.207031 L 95.851562 60.054688 L 93.15625 60.054688 Z M 96.082031 71.675781 L 92.921875 71.675781 C 92.796875 71.675781 92.691406 71.570312 92.691406 71.441406 L 92.691406 59.820312 C 92.691406 59.691406 92.796875 59.589844 92.921875 59.589844 L 96.082031 59.589844 C 96.210938 59.589844 96.316406 59.691406 96.316406 59.820312 L 96.316406 71.441406 C 96.316406 71.570312 96.210938 71.675781 96.082031 71.675781 " fill-opacity="1" fill-rule="nonzero"/><path fill="#81ed97" d="M 100.390625 57.777344 L 97.523438 57.777344 L 97.523438 71.441406 L 100.390625 71.441406 L 100.390625 57.777344 " fill-opacity="1" fill-rule="evenodd"/><path fill="#000000" d="M 97.757812 71.207031 L 100.160156 71.207031 L 100.160156 58.007812 L 97.757812 58.007812 Z M 100.390625 71.675781 L 97.523438 71.675781 C 97.394531 71.675781 97.292969 71.570312 97.292969 71.441406 L 97.292969 57.777344 C 97.292969 57.648438 97.394531 57.542969 97.523438 57.542969 L 100.390625 57.542969 C 100.519531 57.542969 100.621094 57.648438 100.621094 57.777344 L 100.621094 71.441406 C 100.621094 71.570312 100.519531 71.675781 100.390625 71.675781 " fill-opacity="1" fill-rule="nonzero"/><path fill="#000000" d="M 67.414062 86.371094 C 67.375 86.371094 67.335938 86.359375 67.296875 86.339844 C 67.1875 86.273438 67.148438 86.132812 67.214844 86.019531 L 68.066406 84.539062 C 68.109375 84.46875 68.183594 84.421875 68.265625 84.421875 C 68.269531 84.421875 68.269531 84.421875 68.269531 84.421875 C 68.351562 84.425781 68.429688 84.46875 68.46875 84.542969 L 69.296875 86.015625 C 69.363281 86.128906 69.324219 86.273438 69.210938 86.332031 C 69.097656 86.398438 68.957031 86.359375 68.894531 86.246094 L 68.265625 85.125 L 67.613281 86.253906 C 67.574219 86.328125 67.496094 86.371094 67.414062 86.371094 " fill-opacity="1" fill-rule="nonzero"/><path fill="#000000" d="M 96 104.191406 L 68.179688 104.113281 C 68.117188 104.113281 68.058594 104.085938 68.015625 104.042969 C 67.972656 103.996094 67.949219 103.9375 67.949219 103.875 L 68.035156 85.0625 C 68.035156 84.933594 68.140625 84.832031 68.269531 84.832031 C 68.398438 84.832031 68.5 84.933594 68.5 85.0625 L 68.414062 103.644531 L 96 103.722656 C 96.128906 103.722656 96.234375 103.828125 96.230469 103.957031 C 96.230469 104.085938 96.128906 104.191406 96 104.191406 " fill-opacity="1" fill-rule="nonzero"/><path fill="#000000" d="M 68.1875 100 C 68.140625 100 68.09375 99.988281 68.054688 99.960938 C 67.949219 99.882812 67.921875 99.738281 67.996094 99.632812 L 72.523438 93.164062 C 72.574219 93.09375 72.652344 93.058594 72.734375 93.0625 C 72.816406 93.070312 72.886719 93.121094 72.921875 93.195312 L 74.886719 97.261719 L 77.113281 97.253906 C 77.191406 97.253906 77.261719 97.292969 77.304688 97.355469 L 78.636719 99.285156 L 79.839844 97.421875 C 79.886719 97.355469 79.957031 97.316406 80.035156 97.316406 L 84.894531 97.289062 L 85.925781 95.472656 C 85.964844 95.402344 86.042969 95.355469 86.125 95.355469 C 86.207031 95.355469 86.285156 95.398438 86.328125 95.472656 L 87.011719 96.652344 L 88.734375 93.164062 C 88.773438 93.085938 88.855469 93.035156 88.941406 93.035156 L 92.800781 93.039062 L 96.003906 89.714844 C 96.09375 89.621094 96.238281 89.621094 96.332031 89.710938 C 96.425781 89.800781 96.425781 89.949219 96.335938 90.039062 L 93.066406 93.433594 C 93.023438 93.476562 92.960938 93.503906 92.898438 93.503906 L 89.085938 93.503906 L 87.234375 97.246094 C 87.195312 97.324219 87.117188 97.371094 87.03125 97.375 C 86.949219 97.375 86.867188 97.332031 86.824219 97.261719 L 86.128906 96.054688 L 85.230469 97.636719 C 85.1875 97.710938 85.113281 97.753906 85.03125 97.753906 L 80.164062 97.78125 L 78.835938 99.832031 C 78.792969 99.898438 78.722656 99.9375 78.644531 99.9375 C 78.644531 99.9375 78.644531 99.9375 78.640625 99.9375 C 78.566406 99.9375 78.496094 99.902344 78.453125 99.835938 L 76.992188 97.722656 L 74.742188 97.730469 C 74.652344 97.730469 74.570312 97.675781 74.53125 97.597656 L 72.675781 93.753906 L 68.375 99.902344 C 68.332031 99.964844 68.261719 100 68.1875 100 " fill-opacity="1" fill-rule="nonzero"/><path fill="#000000" d="M 80.949219 95.96875 C 80.859375 95.96875 80.78125 95.917969 80.742188 95.839844 L 78.996094 92.367188 L 75.636719 92.367188 C 75.546875 92.367188 75.464844 92.316406 75.425781 92.234375 L 72.554688 86.324219 L 68.433594 92.597656 C 68.363281 92.703125 68.21875 92.734375 68.113281 92.664062 C 68.003906 92.59375 67.976562 92.449219 68.046875 92.339844 L 72.390625 85.726562 C 72.433594 85.65625 72.515625 85.617188 72.597656 85.621094 C 72.683594 85.625 72.753906 85.675781 72.792969 85.75 L 75.78125 91.902344 L 79.140625 91.902344 C 79.226562 91.902344 79.308594 91.949219 79.347656 92.027344 L 80.949219 95.21875 L 82.578125 91.992188 C 82.617188 91.914062 82.699219 91.863281 82.785156 91.863281 C 82.785156 91.863281 82.785156 91.863281 82.789062 91.863281 L 84.589844 91.871094 L 86.078125 88.839844 C 86.117188 88.761719 86.199219 88.710938 86.285156 88.710938 L 91.300781 88.714844 L 92.8125 87.03125 C 92.898438 86.9375 93.042969 86.929688 93.140625 87.015625 C 93.234375 87.101562 93.242188 87.25 93.15625 87.34375 L 91.578125 89.105469 C 91.53125 89.152344 91.46875 89.179688 91.40625 89.179688 L 86.429688 89.175781 L 84.941406 92.210938 C 84.902344 92.289062 84.816406 92.34375 84.734375 92.339844 L 82.929688 92.332031 L 81.15625 95.839844 C 81.117188 95.917969 81.035156 95.96875 80.949219 95.96875 " fill-opacity="1" fill-rule="nonzero"/><path fill="#000000" d="M 68.3125 103.9375 C 68.265625 103.9375 68.21875 103.921875 68.179688 103.894531 C 68.074219 103.820312 68.046875 103.675781 68.121094 103.570312 L 75.640625 92.828125 C 75.6875 92.765625 75.765625 92.730469 75.839844 92.730469 C 75.917969 92.730469 75.988281 92.777344 76.03125 92.84375 L 81.054688 101.320312 L 83.105469 99.238281 C 83.148438 99.191406 83.207031 99.160156 83.269531 99.167969 C 83.332031 99.167969 83.394531 99.195312 83.4375 99.238281 L 84.625 100.488281 L 86.050781 99.269531 C 86.09375 99.234375 86.144531 99.214844 86.203125 99.214844 L 90.46875 99.207031 L 96.300781 92.953125 C 96.386719 92.859375 96.535156 92.855469 96.628906 92.941406 C 96.722656 93.03125 96.726562 93.179688 96.640625 93.273438 L 90.738281 99.601562 C 90.695312 99.648438 90.636719 99.675781 90.570312 99.675781 L 86.285156 99.679688 L 84.761719 100.984375 C 84.667969 101.066406 84.527344 101.058594 84.441406 100.96875 L 83.265625 99.734375 L 81.171875 101.863281 C 81.121094 101.914062 81.050781 101.9375 80.980469 101.929688 C 80.90625 101.921875 80.84375 101.878906 80.808594 101.816406 L 75.816406 93.390625 L 68.503906 103.835938 C 68.457031 103.902344 68.382812 103.9375 68.3125 103.9375 " fill-opacity="1" fill-rule="nonzero"/><path fill="#000000" d="M 94.933594 105.046875 C 94.851562 105.046875 94.773438 105 94.730469 104.921875 C 94.667969 104.8125 94.710938 104.667969 94.820312 104.605469 L 95.945312 103.988281 L 94.828125 103.320312 C 94.71875 103.253906 94.683594 103.113281 94.75 103.003906 C 94.8125 102.890625 94.957031 102.855469 95.066406 102.921875 L 96.53125 103.796875 C 96.601562 103.835938 96.644531 103.917969 96.640625 104 C 96.640625 104.082031 96.59375 104.160156 96.523438 104.199219 L 95.046875 105.015625 C 95.011719 105.035156 94.972656 105.046875 94.933594 105.046875 " fill-opacity="1" fill-rule="nonzero"/><path fill="#000000" d="M 96.09375 91.40625 C 96.074219 91.40625 96.058594 91.40625 96.042969 91.402344 C 95.917969 91.375 95.835938 91.25 95.863281 91.125 L 96.125 89.914062 L 94.894531 90.316406 C 94.769531 90.355469 94.640625 90.289062 94.601562 90.167969 C 94.5625 90.042969 94.628906 89.914062 94.75 89.875 L 96.367188 89.34375 C 96.445312 89.316406 96.535156 89.335938 96.59375 89.394531 C 96.65625 89.449219 96.683594 89.535156 96.667969 89.617188 L 96.320312 91.222656 C 96.296875 91.332031 96.199219 91.40625 96.09375 91.40625 " fill-opacity="1" fill-rule="nonzero"/><path fill="#000000" d="M 92.898438 88.710938 C 92.882812 88.710938 92.863281 88.707031 92.847656 88.703125 C 92.722656 88.675781 92.644531 88.550781 92.671875 88.425781 L 92.945312 87.21875 L 91.71875 87.617188 C 91.59375 87.660156 91.464844 87.589844 91.425781 87.46875 C 91.386719 87.347656 91.453125 87.214844 91.574219 87.175781 L 93.191406 86.648438 C 93.269531 86.621094 93.359375 86.640625 93.421875 86.695312 C 93.480469 86.753906 93.507812 86.839844 93.492188 86.917969 L 93.125 88.527344 C 93.101562 88.636719 93.007812 88.710938 92.898438 88.710938 " fill-opacity="1" fill-rule="nonzero"/><path fill="#000000" d="M 96.355469 94.640625 C 96.339844 94.640625 96.320312 94.640625 96.304688 94.636719 C 96.179688 94.609375 96.097656 94.484375 96.125 94.359375 L 96.390625 93.144531 L 95.15625 93.546875 C 95.03125 93.585938 94.902344 93.519531 94.863281 93.394531 C 94.824219 93.273438 94.890625 93.140625 95.011719 93.101562 L 96.632812 92.574219 C 96.707031 92.546875 96.796875 92.566406 96.859375 92.621094 C 96.917969 92.679688 96.945312 92.761719 96.929688 92.84375 L 96.582031 94.457031 C 96.554688 94.566406 96.460938 94.640625 96.355469 94.640625 " fill-opacity="1" fill-rule="nonzero"/><path fill="#ffc662" d="M 68.894531 80.730469 C 68.894531 78.792969 70.988281 77.21875 73.570312 77.21875 C 76.148438 77.21875 78.242188 78.792969 78.242188 80.730469 C 78.242188 82.671875 76.148438 84.246094 73.570312 84.246094 C 70.988281 84.246094 68.894531 82.671875 68.894531 80.730469 " fill-opacity="1" fill-rule="evenodd"/><path fill="#000000" d="M 73.570312 77.453125 C 71.117188 77.453125 69.128906 78.925781 69.128906 80.730469 C 69.128906 82.539062 71.117188 84.011719 73.570312 84.011719 C 76.019531 84.011719 78.011719 82.539062 78.011719 80.730469 C 78.011719 78.925781 76.019531 77.453125 73.570312 77.453125 Z M 73.570312 84.480469 C 70.863281 84.480469 68.664062 82.796875 68.664062 80.730469 C 68.664062 78.667969 70.863281 76.984375 73.570312 76.984375 C 76.273438 76.984375 78.476562 78.667969 78.476562 80.730469 C 78.476562 82.796875 76.273438 84.480469 73.570312 84.480469 " fill-opacity="1" fill-rule="nonzero"/><path fill="#000000" d="M 76.105469 80.972656 L 70.917969 80.972656 C 70.789062 80.972656 70.6875 80.867188 70.6875 80.738281 C 70.6875 80.609375 70.789062 80.507812 70.917969 80.507812 L 76.105469 80.507812 C 76.234375 80.507812 76.335938 80.609375 76.335938 80.738281 C 76.335938 80.867188 76.234375 80.972656 76.105469 80.972656 " fill-opacity="1" fill-rule="nonzero"/><path fill="#000000" d="M 76.09375 79.773438 L 70.910156 79.773438 C 70.78125 79.773438 70.675781 79.667969 70.675781 79.539062 C 70.675781 79.410156 70.78125 79.304688 70.910156 79.304688 L 76.09375 79.304688 C 76.222656 79.304688 76.328125 79.410156 76.328125 79.539062 C 76.328125 79.667969 76.222656 79.773438 76.09375 79.773438 " fill-opacity="1" fill-rule="nonzero"/><path fill="#000000" d="M 76.085938 82.15625 L 70.898438 82.15625 C 70.769531 82.15625 70.667969 82.050781 70.667969 81.925781 C 70.667969 81.796875 70.769531 81.691406 70.898438 81.691406 L 76.085938 81.691406 C 76.214844 81.691406 76.316406 81.796875 76.316406 81.925781 C 76.316406 82.050781 76.214844 82.15625 76.085938 82.15625 " fill-opacity="1" fill-rule="nonzero"/><path fill="#84d3ff" d="M 83.570312 83.253906 C 83.570312 81.6875 85.261719 80.417969 87.34375 80.417969 C 89.429688 80.417969 91.117188 81.6875 91.117188 83.253906 C 91.117188 84.820312 89.429688 86.089844 87.34375 86.089844 C 85.261719 86.089844 83.570312 84.820312 83.570312 83.253906 " fill-opacity="1" fill-rule="evenodd"/><path fill="#000000" d="M 87.34375 80.652344 C 85.390625 80.652344 83.804688 81.820312 83.804688 83.253906 C 83.804688 84.6875 85.390625 85.855469 87.34375 85.855469 C 89.296875 85.855469 90.886719 84.6875 90.886719 83.253906 C 90.886719 81.820312 89.296875 80.652344 87.34375 80.652344 Z M 87.34375 86.324219 C 85.136719 86.324219 83.339844 84.945312 83.339844 83.253906 C 83.339844 81.5625 85.136719 80.183594 87.34375 80.183594 C 89.554688 80.183594 91.351562 81.5625 91.351562 83.253906 C 91.351562 84.945312 89.554688 86.324219 87.34375 86.324219 " fill-opacity="1" fill-rule="nonzero"/><path fill="#000000" d="M 89.390625 83.492188 L 85.203125 83.492188 C 85.078125 83.492188 84.972656 83.390625 84.972656 83.261719 C 84.972656 83.132812 85.078125 83.027344 85.203125 83.027344 L 89.390625 83.027344 C 89.519531 83.027344 89.625 83.132812 89.625 83.261719 C 89.625 83.390625 89.519531 83.492188 89.390625 83.492188 " fill-opacity="1" fill-rule="nonzero"/><path fill="#000000" d="M 89.382812 82.523438 L 85.199219 82.523438 C 85.070312 82.523438 84.964844 82.417969 84.964844 82.289062 C 84.964844 82.160156 85.070312 82.058594 85.199219 82.058594 L 89.382812 82.058594 C 89.511719 82.058594 89.617188 82.160156 89.617188 82.289062 C 89.617188 82.417969 89.511719 82.523438 89.382812 82.523438 " fill-opacity="1" fill-rule="nonzero"/><path fill="#000000" d="M 89.375 84.449219 L 85.191406 84.449219 C 85.0625 84.449219 84.957031 84.34375 84.957031 84.214844 C 84.957031 84.085938 85.0625 83.984375 85.191406 83.984375 L 89.375 83.984375 C 89.503906 83.984375 89.609375 84.085938 89.609375 84.214844 C 89.609375 84.34375 89.503906 84.449219 89.375 84.449219 " fill-opacity="1" fill-rule="nonzero"/><path fill="#ff5c56" d="M 97.859375 80.238281 C 97.859375 78.949219 99.253906 77.902344 100.96875 77.902344 C 102.6875 77.902344 104.082031 78.949219 104.082031 80.238281 C 104.082031 81.53125 102.6875 82.578125 100.96875 82.578125 C 99.253906 82.578125 97.859375 81.53125 97.859375 80.238281 " fill-opacity="1" fill-rule="evenodd"/><path fill="#000000" d="M 100.96875 78.136719 C 99.382812 78.136719 98.09375 79.078125 98.09375 80.238281 C 98.09375 81.398438 99.382812 82.34375 100.96875 82.34375 C 102.558594 82.34375 103.847656 81.398438 103.847656 80.238281 C 103.847656 79.078125 102.558594 78.136719 100.96875 78.136719 Z M 100.96875 82.808594 C 99.128906 82.808594 97.628906 81.65625 97.628906 80.238281 C 97.628906 78.820312 99.128906 77.667969 100.96875 77.667969 C 102.8125 77.667969 104.3125 78.820312 104.3125 80.238281 C 104.3125 81.65625 102.8125 82.808594 100.96875 82.808594 " fill-opacity="1" fill-rule="nonzero"/><path fill="#000000" d="M 102.644531 80.972656 L 99.191406 80.972656 C 99.066406 80.972656 98.960938 80.871094 98.960938 80.738281 C 98.960938 80.613281 99.066406 80.507812 99.191406 80.507812 L 102.644531 80.507812 C 102.769531 80.507812 102.875 80.613281 102.875 80.738281 C 102.875 80.871094 102.769531 80.972656 102.644531 80.972656 " fill-opacity="1" fill-rule="nonzero"/><path fill="#000000" d="M 102.664062 79.945312 L 99.214844 79.945312 C 99.085938 79.945312 98.984375 79.84375 98.984375 79.714844 C 98.984375 79.585938 99.085938 79.480469 99.214844 79.480469 L 102.664062 79.480469 C 102.792969 79.480469 102.898438 79.585938 102.898438 79.714844 C 102.898438 79.84375 102.792969 79.945312 102.664062 79.945312 " fill-opacity="1" fill-rule="nonzero"/><path fill="#b9b5ff" d="M 97.855469 88.644531 C 97.855469 87.351562 99.25 86.304688 100.96875 86.304688 C 102.683594 86.304688 104.078125 87.351562 104.078125 88.644531 C 104.078125 89.933594 102.683594 90.980469 100.96875 90.980469 C 99.25 90.980469 97.855469 89.933594 97.855469 88.644531 " fill-opacity="1" fill-rule="evenodd"/><path fill="#000000" d="M 100.96875 86.539062 C 99.378906 86.539062 98.089844 87.484375 98.089844 88.644531 C 98.089844 89.804688 99.378906 90.746094 100.96875 90.746094 C 102.554688 90.746094 103.84375 89.804688 103.84375 88.644531 C 103.84375 87.484375 102.554688 86.539062 100.96875 86.539062 Z M 100.96875 91.214844 C 99.125 91.214844 97.625 90.058594 97.625 88.644531 C 97.625 87.226562 99.125 86.074219 100.96875 86.074219 C 102.808594 86.074219 104.308594 87.226562 104.308594 88.644531 C 104.308594 90.058594 102.808594 91.214844 100.96875 91.214844 " fill-opacity="1" fill-rule="nonzero"/><path fill="#000000" d="M 100.964844 86.355469 C 100.835938 86.355469 100.730469 86.253906 100.730469 86.125 L 100.730469 82.644531 C 100.730469 82.515625 100.835938 82.410156 100.964844 82.410156 C 101.09375 82.410156 101.195312 82.515625 101.195312 82.644531 L 101.195312 86.125 C 101.195312 86.253906 101.09375 86.355469 100.964844 86.355469 " fill-opacity="1" fill-rule="nonzero"/><path fill="#000000" d="M 83.472656 83.226562 C 83.449219 83.226562 83.425781 83.222656 83.402344 83.214844 L 78.230469 81.585938 C 78.105469 81.546875 78.039062 81.417969 78.078125 81.292969 C 78.113281 81.171875 78.246094 81.101562 78.367188 81.140625 L 83.539062 82.769531 C 83.664062 82.808594 83.730469 82.9375 83.691406 83.0625 C 83.660156 83.160156 83.570312 83.226562 83.472656 83.226562 " fill-opacity="1" fill-rule="nonzero"/><path fill="#000000" d="M 91.199219 83.242188 C 91.101562 83.242188 91.007812 83.175781 90.976562 83.074219 C 90.941406 82.953125 91.007812 82.820312 91.132812 82.785156 L 97.722656 80.757812 C 97.84375 80.722656 97.976562 80.792969 98.011719 80.914062 C 98.050781 81.039062 97.980469 81.167969 97.859375 81.207031 L 91.265625 83.230469 C 91.246094 83.238281 91.222656 83.242188 91.199219 83.242188 " fill-opacity="1" fill-rule="nonzero"/><path fill="#000000" d="M 100.695312 89.675781 C 100.695312 89.609375 100.71875 89.550781 100.765625 89.503906 C 100.8125 89.457031 100.871094 89.433594 100.9375 89.433594 C 101.007812 89.433594 101.0625 89.457031 101.113281 89.503906 C 101.160156 89.550781 101.183594 89.609375 101.183594 89.675781 C 101.183594 89.746094 101.160156 89.800781 101.113281 89.851562 C 101.0625 89.898438 101.007812 89.925781 100.9375 89.925781 C 100.871094 89.925781 100.8125 89.898438 100.765625 89.851562 C 100.71875 89.800781 100.695312 89.746094 100.695312 89.675781 Z M 101.066406 88.871094 C 101.128906 88.890625 101.171875 88.917969 101.195312 88.960938 C 101.222656 89.003906 101.230469 89.046875 101.21875 89.089844 C 101.210938 89.128906 101.1875 89.164062 101.148438 89.195312 C 101.109375 89.222656 101.054688 89.234375 100.992188 89.226562 C 100.902344 89.207031 100.828125 89.171875 100.769531 89.121094 C 100.710938 89.070312 100.667969 89.011719 100.644531 88.941406 C 100.617188 88.875 100.609375 88.800781 100.621094 88.71875 C 100.632812 88.640625 100.667969 88.5625 100.722656 88.492188 C 100.757812 88.445312 100.804688 88.394531 100.867188 88.347656 C 100.925781 88.296875 100.988281 88.25 101.046875 88.199219 C 101.109375 88.152344 101.167969 88.101562 101.21875 88.050781 C 101.273438 88 101.308594 87.949219 101.332031 87.894531 C 101.355469 87.839844 101.355469 87.785156 101.335938 87.726562 C 101.316406 87.667969 101.265625 87.609375 101.179688 87.546875 C 101.171875 87.542969 101.164062 87.542969 101.152344 87.539062 C 101.144531 87.535156 101.136719 87.535156 101.121094 87.53125 C 100.996094 87.535156 100.882812 87.574219 100.773438 87.644531 C 100.667969 87.714844 100.578125 87.800781 100.503906 87.902344 C 100.460938 87.953125 100.417969 87.980469 100.367188 87.984375 C 100.320312 87.992188 100.277344 87.980469 100.242188 87.957031 C 100.207031 87.929688 100.183594 87.894531 100.171875 87.847656 C 100.164062 87.796875 100.175781 87.746094 100.210938 87.6875 C 100.269531 87.613281 100.339844 87.539062 100.421875 87.46875 C 100.5 87.398438 100.585938 87.335938 100.679688 87.289062 C 100.773438 87.242188 100.867188 87.210938 100.964844 87.1875 C 101.0625 87.167969 101.152344 87.167969 101.242188 87.1875 C 101.332031 87.207031 101.410156 87.25 101.488281 87.3125 C 101.5625 87.378906 101.625 87.472656 101.675781 87.597656 C 101.707031 87.675781 101.71875 87.753906 101.714844 87.828125 C 101.707031 87.902344 101.6875 87.972656 101.660156 88.039062 C 101.628906 88.105469 101.589844 88.171875 101.542969 88.226562 C 101.492188 88.285156 101.4375 88.339844 101.375 88.386719 C 101.355469 88.40625 101.316406 88.433594 101.265625 88.46875 C 101.214844 88.5 101.164062 88.539062 101.121094 88.582031 C 101.070312 88.625 101.035156 88.667969 101.007812 88.714844 C 100.980469 88.757812 100.976562 88.804688 100.996094 88.847656 C 101 88.855469 101.007812 88.859375 101.007812 88.859375 C 101.015625 88.863281 101.027344 88.867188 101.035156 88.867188 C 101.046875 88.867188 101.058594 88.867188 101.066406 88.871094 " fill-opacity="1" fill-rule="evenodd"/><path fill="#000000" d="M 50.851562 83.308594 L 48.5625 83.308594 C 48.433594 83.308594 48.328125 83.203125 48.328125 83.074219 C 48.328125 82.945312 48.433594 82.839844 48.5625 82.839844 L 50.832031 82.839844 C 50.960938 82.839844 51.074219 82.945312 51.074219 83.074219 C 51.074219 83.203125 50.980469 83.308594 50.851562 83.308594 " fill-opacity="1" fill-rule="nonzero"/><path fill="#000000" d="M 63.109375 92.496094 L 53.066406 92.496094 C 52.9375 92.496094 52.824219 92.390625 52.824219 92.261719 C 52.824219 92.132812 52.917969 92.027344 53.046875 92.027344 L 63.109375 92.027344 C 63.558594 92.027344 63.925781 91.660156 63.925781 91.207031 L 63.925781 84.128906 C 63.925781 83.675781 63.558594 83.308594 63.109375 83.308594 L 56.0625 83.308594 C 55.933594 83.308594 55.828125 83.203125 55.828125 83.074219 C 55.828125 82.945312 55.933594 82.839844 56.0625 82.839844 L 63.109375 82.839844 C 63.816406 82.839844 64.390625 83.417969 64.390625 84.128906 L 64.390625 91.207031 C 64.390625 91.917969 63.816406 92.496094 63.109375 92.496094 " fill-opacity="1" fill-rule="nonzero"/><path fill="#000000" d="M 62.320312 87.050781 L 54.636719 87.050781 C 54.507812 87.050781 54.402344 86.949219 54.402344 86.820312 C 54.402344 86.691406 54.507812 86.585938 54.636719 86.585938 L 62.320312 86.585938 C 62.445312 86.585938 62.550781 86.691406 62.550781 86.820312 C 62.550781 86.949219 62.445312 87.050781 62.320312 87.050781 " fill-opacity="1" fill-rule="nonzero"/><path fill="#000000" d="M 62.292969 85.175781 L 55.390625 85.175781 C 55.261719 85.175781 55.15625 85.070312 55.15625 84.941406 C 55.15625 84.8125 55.261719 84.707031 55.390625 84.707031 L 62.292969 84.707031 C 62.421875 84.707031 62.523438 84.8125 62.523438 84.941406 C 62.523438 85.070312 62.421875 85.175781 62.292969 85.175781 " fill-opacity="1" fill-rule="nonzero"/><path fill="#000000" d="M 62.265625 88.902344 L 53.953125 88.902344 C 53.824219 88.902344 53.71875 88.796875 53.71875 88.667969 C 53.71875 88.539062 53.824219 88.433594 53.953125 88.433594 L 62.265625 88.433594 C 62.394531 88.433594 62.496094 88.539062 62.496094 88.667969 C 62.496094 88.796875 62.394531 88.902344 62.265625 88.902344 " fill-opacity="1" fill-rule="nonzero"/><path fill="#000000" d="M 62.246094 90.722656 L 53.222656 90.722656 C 53.09375 90.722656 52.988281 90.621094 52.988281 90.492188 C 52.988281 90.363281 53.09375 90.257812 53.222656 90.257812 L 62.246094 90.257812 C 62.375 90.257812 62.480469 90.363281 62.480469 90.492188 C 62.480469 90.621094 62.375 90.722656 62.246094 90.722656 " fill-opacity="1" fill-rule="nonzero"/><path fill="#000000" d="M 59.78125 64.105469 C 59.6875 64.105469 59.601562 64.046875 59.566406 63.960938 L 58.578125 61.542969 C 58.53125 61.425781 58.585938 61.285156 58.707031 61.238281 C 58.824219 61.191406 58.960938 61.246094 59.007812 61.367188 L 59.757812 63.203125 L 60.957031 59.625 C 61 59.5 61.132812 59.4375 61.253906 59.476562 C 61.375 59.519531 61.441406 59.648438 61.398438 59.773438 L 60 63.945312 C 59.96875 64.039062 59.882812 64.101562 59.789062 64.105469 C 59.785156 64.105469 59.78125 64.105469 59.78125 64.105469 " fill-opacity="1" fill-rule="nonzero"/><path fill="#000000" d="M 100.460938 74.933594 L 83.65625 74.933594 C 83.527344 74.933594 83.425781 74.828125 83.425781 74.699219 C 83.425781 74.570312 83.527344 74.464844 83.65625 74.464844 L 100.460938 74.464844 C 100.589844 74.464844 100.695312 74.570312 100.695312 74.699219 C 100.695312 74.828125 100.589844 74.933594 100.460938 74.933594 " fill-opacity="1" fill-rule="nonzero"/><path fill="#000000" d="M 100.484375 73.28125 L 83.679688 73.28125 C 83.550781 73.28125 83.445312 73.175781 83.445312 73.046875 C 83.445312 72.917969 83.550781 72.8125 83.679688 72.8125 L 100.484375 72.8125 C 100.613281 72.8125 100.714844 72.917969 100.714844 73.046875 C 100.714844 73.175781 100.613281 73.28125 100.484375 73.28125 " fill-opacity="1" fill-rule="nonzero"/><path fill="#000000" d="M 100.433594 76.550781 L 83.625 76.550781 C 83.5 76.550781 83.394531 76.445312 83.394531 76.316406 C 83.394531 76.1875 83.5 76.082031 83.625 76.082031 L 100.433594 76.082031 C 100.5625 76.082031 100.664062 76.1875 100.664062 76.316406 C 100.664062 76.445312 100.5625 76.550781 100.433594 76.550781 " fill-opacity="1" fill-rule="nonzero"/></svg>