<svg xmlns="http://www.w3.org/2000/svg" xmlns:xlink="http://www.w3.org/1999/xlink" width="1080" zoomAndPan="magnify" viewBox="0 0 810 809.999993" height="1080" preserveAspectRatio="xMidYMid meet" version="1.0"><path fill="#ffbd59" d="M 810 445.5 L 810 688.5 C 810 755.5 755.5 810 688.5 810 L 121.5 810 C 54.5 810 0 755.5 0 688.5 L 0 121.5 C 0 54.5 54.5 0 121.5 0 L 364.5 0 C 386.886719 0 405 18.113281 405 40.5 C 405 62.886719 386.886719 81 364.5 81 L 121.5 81 C 99.152344 81 81 99.152344 81 121.5 L 81 688.5 C 81 710.847656 99.152344 729 121.5 729 L 688.5 729 C 710.847656 729 729 710.847656 729 688.5 L 729 445.5 C 729 423.113281 747.113281 405 769.5 405 C 791.886719 405 810 423.113281 810 445.5 Z M 769.5 0 L 526.5 0 C 504.113281 0 486 18.113281 486 40.5 C 486 62.886719 504.113281 81 526.5 81 L 671.730469 81 L 376.363281 376.367188 C 360.546875 392.183594 360.546875 417.816406 376.363281 433.632812 C 384.273438 441.542969 394.636719 445.5 405 445.5 C 415.363281 445.5 425.722656 441.542969 433.632812 433.632812 L 729 138.269531 L 729 283.5 C 729 305.886719 747.113281 324 769.5 324 C 791.886719 324 810 305.886719 810 283.5 L 810 40.5 C 810 18.113281 791.886719 0 769.5 0 Z M 769.5 0 " fill-opacity="1" fill-rule="nonzero"/></svg>